<svg xmlns="http://www.w3.org/2000/svg" width="22" height="24" viewBox="0 0 22 24" fill="none">
<path d="M21.819 16.0129C21.6488 15.5467 21.2863 15.1858 20.8246 15.0227C20.3632 14.8597 19.8585 14.9106 19.4402 15.1621L15.3881 17.5934L14.8307 17.8323H11.9068C11.871 17.8323 11.851 17.8123 11.8406 17.7955C11.8301 17.7787 11.821 17.7519 11.8368 17.7198C11.8458 17.7014 11.8614 17.6875 11.8806 17.6807L14.0994 16.8878C14.958 16.5993 15.45 15.7209 15.2198 14.8861C15.099 14.448 14.8123 14.0895 14.4125 13.8766C14.0189 13.6669 13.5508 13.6278 13.1287 13.7692L10.8392 14.5322L4.82759 14.9331C4.4329 14.9594 4.06153 15.1279 3.78187 15.4076L0.511719 18.6777C-0.115624 19.305 -0.173734 20.3001 0.379377 20.9431C0.52556 21.113 1.15565 21.7168 2.10014 22.6186C2.65055 23.1441 3.17039 23.6403 3.41719 23.8871C3.49277 23.9627 3.59229 24.001 3.69224 24.001C3.78026 24.001 3.86864 23.9712 3.94106 23.9109L5.73719 22.4141C6.11375 22.1003 6.59107 21.9275 7.0812 21.9275H13.2304C13.453 21.9275 13.6696 21.8831 13.8742 21.7954L16.7765 20.5515C16.7845 20.5481 16.7925 20.5443 16.8003 20.5403L16.9476 20.465C16.9555 20.461 16.9632 20.4568 16.9706 20.4522L21.0806 17.9862C21.7742 17.5701 22.0847 16.7402 21.819 16.0129V16.0129ZM20.6806 17.3194L16.5819 19.7786L16.458 19.842L13.5679 21.0806C13.4606 21.1266 13.347 21.1499 13.2303 21.1499H7.08125C6.40953 21.1499 5.75544 21.3867 5.23945 21.8167L3.71354 23.0883C3.43466 22.8175 3.04421 22.4448 2.63713 22.0561C1.95276 21.4028 1.10107 20.5897 0.968827 20.4359C0.68434 20.1053 0.725914 19.5631 1.06156 19.2275L4.33171 15.9573C4.4781 15.8109 4.6726 15.7227 4.87928 15.7089L10.9407 15.3047C10.9738 15.3025 11.0064 15.2961 11.0377 15.2856L13.375 14.5067C13.4644 14.4767 13.5559 14.4619 13.647 14.4619C13.7847 14.4619 13.9212 14.4958 14.047 14.5628C14.2564 14.6743 14.4067 14.8625 14.4701 15.0927C14.5887 15.5229 14.3102 15.9979 13.8492 16.1515C13.8465 16.1524 13.8439 16.1533 13.8413 16.1543L11.6189 16.9484C11.4083 17.0237 11.2379 17.1757 11.1391 17.3764C11.0078 17.6435 11.0232 17.9537 11.1805 18.2064C11.3378 18.459 11.6093 18.6098 11.9069 18.6098H14.9105C14.9632 18.6098 15.0153 18.5992 15.0637 18.5784L15.7186 18.2978C15.7348 18.2909 15.7505 18.2828 15.7655 18.2738L19.8406 15.8287C20.0596 15.697 20.3237 15.6705 20.5656 15.7559C20.8112 15.8427 20.9969 16.0287 21.0886 16.2797C21.2245 16.6514 21.049 17.0984 20.6806 17.3194V17.3194Z" fill="#E12424"/>
<path d="M14.0743 12.3893C17.4901 12.3893 20.2689 9.6104 20.2689 6.19464C20.2689 2.77888 17.4901 0 14.0743 0C10.6585 0 7.87966 2.77888 7.87966 6.19464C7.87966 9.6104 10.6585 12.3893 14.0743 12.3893ZM14.0743 0.77757C17.0613 0.77757 19.4914 3.20763 19.4914 6.19464C19.4914 9.18165 17.0613 11.6117 14.0743 11.6117C11.0873 11.6117 8.65723 9.18165 8.65723 6.19464C8.65723 3.20763 11.0873 0.77757 14.0743 0.77757Z" fill="#E12424"/>
<path d="M11.9749 7.6461C11.9749 7.43139 11.8008 7.25732 11.5861 7.25732C11.3713 7.25732 11.1973 7.43139 11.1973 7.6461C11.1973 8.3978 11.8683 9.03049 12.8561 9.31886V9.51227C12.8561 9.72698 13.0301 9.90105 13.2449 9.90105C13.4597 9.90105 13.6337 9.72698 13.6337 9.51227V9.46577C13.7771 9.4793 13.9241 9.48635 14.0743 9.48635C14.2245 9.48635 14.3715 9.4793 14.5149 9.46577V9.51227C14.5149 9.72698 14.6889 9.90105 14.9037 9.90105C15.1185 9.90105 15.2925 9.72698 15.2925 9.51227V9.31886C16.2803 9.03049 16.9513 8.39786 16.9513 7.6461C16.9513 6.89435 16.2803 6.26172 15.2925 5.97334V3.88821C15.8409 4.09675 16.1737 4.43095 16.1737 4.74317C16.1737 4.95789 16.3478 5.13196 16.5625 5.13196C16.7773 5.13196 16.9513 4.95789 16.9513 4.74317C16.9513 3.99147 16.2803 3.35879 15.2925 3.07041V2.87701C15.2925 2.66229 15.1185 2.48822 14.9037 2.48822C14.6889 2.48822 14.5149 2.66229 14.5149 2.87701V2.92351C14.3715 2.90998 14.2245 2.90293 14.0743 2.90293C13.9241 2.90293 13.7771 2.90998 13.6337 2.92351V2.87701C13.6337 2.66229 13.4597 2.48822 13.2449 2.48822C13.0301 2.48822 12.8561 2.66229 12.8561 2.87701V3.07041C11.8683 3.35879 11.1973 3.99142 11.1973 4.74317C11.1973 5.49493 11.8683 6.12756 12.8561 6.41593V8.50106C12.3077 8.29252 11.9749 7.95827 11.9749 7.6461ZM15.2925 6.79114C15.8409 6.99968 16.1737 7.33388 16.1737 7.6461C16.1737 7.95832 15.8409 8.29252 15.2925 8.50106V6.79114ZM13.6337 3.70507C13.7742 3.6891 13.9214 3.6805 14.0743 3.6805C14.2272 3.6805 14.3744 3.6891 14.5149 3.70507V5.82643C14.3715 5.8129 14.2245 5.80585 14.0743 5.80585C13.9214 5.80585 13.7742 5.79725 13.6337 5.78128V3.70507V3.70507ZM13.6337 6.56284C13.7771 6.57637 13.9241 6.58342 14.0743 6.58342C14.2272 6.58342 14.3744 6.59203 14.5149 6.60799V8.68421C14.3744 8.70017 14.2272 8.70878 14.0743 8.70878C13.9214 8.70878 13.7742 8.70017 13.6337 8.68421V6.56284ZM11.9749 4.74317C11.9749 4.43101 12.3077 4.09675 12.8561 3.88821V5.59809C12.3077 5.38959 11.9749 5.05534 11.9749 4.74317Z" fill="#E12424"/>
</svg>