<?xml version="1.0" encoding="UTF-8"?>
<svg version="1.1" xmlns="http://www.w3.org/2000/svg" width="225" height="225">
<path d="M0 0 C74.25 0 148.5 0 225 0 C225 74.25 225 148.5 225 225 C150.75 225 76.5 225 0 225 C0 150.75 0 76.5 0 0 Z " fill="#FEFEFE" transform="translate(0,0)"/>
<path d="M0 0 C45.21 0 90.42 0 137 0 C137 38.28 137 76.56 137 116 C91.79 116 46.58 116 0 116 C0 77.72 0 39.44 0 0 Z " fill="#F8ECEF" transform="translate(43,47)"/>
<path d="M0 0 C2.68710384 4.22259175 2.45065748 9.15848033 2 14 C1.18966371 16.95209635 0.00159029 19.65480708 -1.28125 22.4296875 C-1.78066101 23.56520554 -1.78066101 23.56520554 -2.29016113 24.72366333 C-3.34469552 27.11465172 -4.42101573 29.49495864 -5.5 31.875 C-6.57500234 34.27800299 -7.64524137 36.68297611 -8.70983887 39.09060669 C-9.370649 40.58170696 -10.03813758 42.06986958 -10.7130127 43.55465698 C-12.04818175 46.5398926 -13 48.69086339 -13 52 C-11.35 51.34 -9.7 50.68 -8 50 C-8.52070263 54.13669316 -9.6730794 56.21453608 -12.5 59.25 C-13.1290625 59.93578125 -13.758125 60.6215625 -14.40625 61.328125 C-16.95024349 63.99682405 -16.95024349 63.99682405 -19.9375 64.1875 C-23 64 -23 64 -25 62 C-25.625 59.875 -25.625 59.875 -26 58 C-26.42410156 58.49371094 -26.84820312 58.98742187 -27.28515625 59.49609375 C-32.67219638 65.38039912 -32.67219638 65.38039912 -36.9375 65.9375 C-38.4534375 65.9684375 -38.4534375 65.9684375 -40 66 C-40.66 65.01 -41.32 64.02 -42 63 C-42.66 63.99 -43.32 64.98 -44 66 C-49.008867 66.7270936 -49.008867 66.7270936 -52 66 C-54.76404539 63.09775234 -55.87359908 61.17001873 -56.3046875 57.1796875 C-55.93207408 53.29113207 -54.66513712 51.06418194 -52.625 47.75 C-51.99851562 46.71359375 -51.37203125 45.6771875 -50.7265625 44.609375 C-49 42 -49 42 -47 40 C-44.375 39.875 -44.375 39.875 -42 40 C-42.36004907 43.69050299 -43.09794732 46.41997818 -45 49.5625 C-46.76131177 52.58975461 -47.58570434 54.58206079 -48 58 C-43.81128306 54.29639059 -41.55260574 49.78375292 -39.08789062 44.86914062 C-36.58666056 40.19721781 -36.58666056 40.19721781 -33.24609375 39.07421875 C-32.50488281 39.04972656 -31.76367188 39.02523437 -31 39 C-31.47285854 44.48515912 -32.38187569 48.09101692 -35 53 C-35.69907414 55.73572585 -35.69907414 55.73572585 -36 58 C-34.948125 57.360625 -33.89625 56.72125 -32.8125 56.0625 C-30.53569224 54.67855803 -29.30561423 54.00763257 -26.60498047 53.94018555 C-23.60900988 53.18090062 -23.60900988 53.18090062 -22.0871582 49.56933594 C-21.4713859 48.04908633 -20.87729118 46.51994352 -20.30078125 44.984375 C-19.97965866 44.17639465 -19.65853607 43.36841431 -19.3276825 42.53594971 C-18.303881 39.94754991 -17.30799918 37.34939902 -16.3125 34.75 C-15.63137505 33.01360877 -14.9484527 31.27792146 -14.26367188 29.54296875 C-12.73499971 25.66028116 -11.22638375 21.77030786 -9.72671509 17.87634277 C-8.8360979 15.5768128 -7.92322364 13.2866185 -7 11 C-16.73400604 12.15491318 -16.73400604 12.15491318 -25 17 C-24.34 17.33 -23.68 17.66 -23 18 C-23 18.99 -23 19.98 -23 21 C-25.97 20.67 -28.94 20.34 -32 20 C-33.06226849 8.63541335 -33.06226849 8.63541335 -30.6171875 4.87109375 C-23.25649435 -1.48586851 -8.83935607 -5.62504477 0 0 Z " fill="#12623E" transform="translate(150,63)"/>
<path d="M0 0 C2.66822459 2.66822459 2.36019182 4.15511221 2.4375 7.875 C2.36224686 13.58055627 2.36224686 13.58055627 -0.375 16.75 C-3 18 -3 18 -5 18 C-5 16.35 -5 14.7 -5 13 C-9.63359635 13.40175691 -13.76036969 14.03478199 -18 16 C-20.33473103 19.8218871 -21.27103532 23.60577367 -22 28 C-21.26394531 27.84402344 -20.52789062 27.68804687 -19.76953125 27.52734375 C-18.79371094 27.33269531 -17.81789063 27.13804688 -16.8125 26.9375 C-15.36810547 26.64166016 -15.36810547 26.64166016 -13.89453125 26.33984375 C-10.96389138 25.99576053 -8.83692932 26.25835303 -6 27 C-6.2890625 28.90234375 -6.2890625 28.90234375 -7 31 C-10.64251546 32.68634975 -13.91810764 33.81158881 -17.87109375 34.5 C-20.84629958 35.06896367 -23.29802729 35.61998419 -26 37 C-27.90784283 40.20584734 -28.47708208 43.33957454 -29 47 C-29.20367187 47.91007812 -29.40734375 48.82015625 -29.6171875 49.7578125 C-29.74351563 50.49773437 -29.86984375 51.23765625 -30 52 C-29.67 52.33 -29.34 52.66 -29 53 C-28.3076109 57.78737606 -28.32519197 61.02748255 -31.125 65.0625 C-34.45669741 67.30777434 -36.06327248 67.61237984 -40 67 C-40.66 66.34 -41.32 65.68 -42 65 C-41.77833537 58.23922882 -39.93784784 52.42588291 -37.83984375 46.02734375 C-37.1152436 43.41541297 -36.82250233 41.59996511 -37 38.9375 C-37 37.968125 -37 36.99875 -37 36 C-36.37609375 35.39800781 -35.7521875 34.79601562 -35.109375 34.17578125 C-32.60362254 31.59114399 -32.07662136 29.7218097 -31.25 26.25 C-31.00765625 25.26515625 -30.7653125 24.2803125 -30.515625 23.265625 C-30.26039062 22.14414063 -30.26039062 22.14414063 -30 21 C-31.65 21.33 -33.3 21.66 -35 22 C-35.77830189 11.15566038 -35.77830189 11.15566038 -32.9375 6.9375 C-23.48973827 0.70599758 -11.22936264 -1.36845279 0 0 Z " fill="#11613E" transform="translate(113,70)"/>
<path d="M0 0 C0 1.65 0 3.3 0 5 C1.65 4.34 3.3 3.68 5 3 C5.33 3.33 5.66 3.66 6 4 C7.53868961 4.07477534 9.08072785 4.08323597 10.62109375 4.0625 C11.55630859 4.05476563 12.49152344 4.04703125 13.45507812 4.0390625 C15.4394538 4.01307199 17.4238288 3.98703052 19.40820312 3.9609375 C20.34470703 3.95320313 21.28121094 3.94546875 22.24609375 3.9375 C23.10904053 3.92589844 23.9719873 3.91429688 24.86108398 3.90234375 C27 4 27 4 29 5 C28.36427942 11.12792949 26.07037232 16.57390853 23.8125 22.25 C23.25079102 23.75820312 23.25079102 23.75820312 22.67773438 25.296875 C19.75774351 32.6239347 19.75774351 32.6239347 15.8359375 34.5703125 C14.90007812 34.71210937 13.96421875 34.85390625 13 35 C11.66209359 35.99387334 10.32781878 36.9926892 9 38 C8.01 38 7.02 38 6 38 C6.53135503 32.79272072 7.88244106 28.76450762 10 24 C10.69140522 21.22111387 10.69140522 21.22111387 11 19 C8.45717346 19.36330899 7.30815198 19.61419941 5.67553711 21.65820312 C5.2966333 22.35880859 4.91772949 23.05941406 4.52734375 23.78125 C4.10259766 24.54050781 3.67785156 25.29976562 3.24023438 26.08203125 C2.81033203 26.87996094 2.38042969 27.67789063 1.9375 28.5 C1.07995321 30.07747834 0.21441452 31.65064594 -0.66015625 33.21875 C-1.03793213 33.91935547 -1.41570801 34.61996094 -1.80493164 35.34179688 C-3 37 -3 37 -6 38 C-6.27475914 34.00542483 -5.64718684 31.83323635 -3.5625 28.4375 C-1.84688795 25.61724885 -0.64117375 23.25008762 0 20 C-3.95214556 20.88073202 -5.61916194 21.46608722 -8.01171875 24.8203125 C-8.56472656 25.91085938 -9.11773437 27.00140625 -9.6875 28.125 C-11.38671875 31.4453125 -11.38671875 31.4453125 -13 34 C-13.99 34 -14.98 34 -16 34 C-16 33.34 -16 32.68 -16 32 C-17.65 31.67 -19.3 31.34 -21 31 C-21.495 32.485 -21.495 32.485 -22 34 C-22.66 34 -23.32 34 -24 34 C-23.51966356 30.3522276 -22.78414549 27.23694968 -21 24 C-17.5394682 21.8814236 -13.90670807 21.00321715 -10 20 C-8.42966028 19.43811282 -6.86578496 18.85744537 -5.3125 18.25 C-4.219375 17.8375 -3.12625 17.425 -2 17 C-2 16.01 -2 15.02 -2 14 C-3.155 14.144375 -4.31 14.28875 -5.5 14.4375 C-11.75 15.21875 -11.75 15.21875 -18 16 C-17.46262385 13.86850801 -16.89418812 11.74482786 -16.3125 9.625 C-15.99925781 8.44164063 -15.68601562 7.25828125 -15.36328125 6.0390625 C-14 3 -14 3 -11.515625 1.625 C-7.5149504 0.63104358 -4.15459987 0 0 0 Z " fill="#F3F0F0" transform="translate(108,83)"/>
<path d="M0 0 C45.21 0 90.42 0 137 0 C137 38.28 137 76.56 137 116 C91.79 116 46.58 116 0 116 C0 77.72 0 39.44 0 0 Z M2 2 C2 39.29 2 76.58 2 115 C45.89 115 89.78 115 135 115 C135 77.71 135 40.42 135 2 C91.11 2 47.22 2 2 2 Z " fill="#E12548" transform="translate(43,47)"/>
<path d="M0 0 C41.25 0 82.5 0 125 0 C125 1.65 125 3.3 125 5 C83.75 5 42.5 5 0 5 C0 3.35 0 1.7 0 0 Z " fill="#EA123E" transform="translate(49,152)"/>
<path d="M0 0 C41.25 0 82.5 0 125 0 C125 1.65 125 3.3 125 5 C83.75 5 42.5 5 0 5 C0 3.35 0 1.7 0 0 Z " fill="#EA113E" transform="translate(49,143)"/>
<path d="M0 0 C34.32 0 68.64 0 104 0 C104 1.98 104 3.96 104 6 C69.68 6 35.36 6 0 6 C0 4.02 0 2.04 0 0 Z " fill="#E61C44" transform="translate(70,52)"/>
<path d="M0 0 C0.66 0.66 1.32 1.32 2 2 C1.64165575 8.56964462 -0.1607356 14.70717087 -2 21 C-1.0925 20.54625 -0.185 20.0925 0.75 19.625 C4.375 17.8125 4.375 17.8125 8 16 C7.54617044 20.87866775 6.3639156 23.43820701 3 27 C-0.22791555 29.1519437 -1.28400809 29.20086443 -5 29 C-5.66 27.35 -6.32 25.7 -7 24 C-7.433125 25.2065625 -7.433125 25.2065625 -7.875 26.4375 C-9 29 -9 29 -11 30 C-14.68012333 30.4000134 -16.3489289 30.51029897 -19.3125 28.1875 C-22.33305573 24.27196479 -22.54391797 20.81755913 -22 16 C-17.85563444 7.20660444 -10.1348353 -0.63342721 0 0 Z " fill="#11613E" transform="translate(165,90)"/>
<path d="M0 0 C29.04 0 58.08 0 88 0 C88 1.98 88 3.96 88 6 C57.97 6 27.94 6 -3 6 C-2 4 -1 2 0 0 Z " fill="#E6254B" transform="translate(86,132)"/>
<path d="M0 0 C18.15 0 36.3 0 55 0 C49.18571934 5.81428066 49.18571934 5.81428066 45.69671631 6.36076355 C44.85288391 6.35410172 44.00905151 6.34743988 43.13964844 6.34057617 C42.17895447 6.34034958 41.2182605 6.34012299 40.22845459 6.33988953 C39.19915833 6.32440567 38.16986206 6.30892181 37.109375 6.29296875 C35.51974945 6.28660149 35.51974945 6.28660149 33.89801025 6.28010559 C30.51508113 6.2633203 27.13274891 6.22566755 23.75 6.1875 C21.45573777 6.17245301 19.1614662 6.15876463 16.8671875 6.14648438 C11.2445882 6.11341728 5.62233675 6.06321903 0 6 C0 4.02 0 2.04 0 0 Z " fill="#E6274D" transform="translate(70,61)"/>
<path d="M0 0 C0.99 0 1.98 0 3 0 C3 0.99 3 1.98 3 3 C3.78375 3 4.5675 3 5.375 3 C8.25 3 11.125 3 14 3 C14 7.29 14 11.58 14 16 C12.35 16 10.7 16 9 16 C8.67 15.01 8.34 14.02 8 13 C7.67 13.99 7.34 14.98 7 16 C6.01 16 5.02 16 4 16 C3.67 12.37 3.34 8.74 3 5 C2.7834375 7.165625 2.7834375 7.165625 2.5625 9.375 C2.125 13.75 2.125 13.75 1 16 C-5.15234375 16.09765625 -5.15234375 16.09765625 -7 16 C-8 15 -8 15 -8.1328125 12.53125 C-8.13023438 11.5309375 -8.12765625 10.530625 -8.125 9.5 C-8.12757812 8.4996875 -8.13015625 7.499375 -8.1328125 6.46875 C-8 4 -8 4 -7 3 C-4.67182036 2.63239269 -2.3381615 2.29758419 0 2 C0 1.34 0 0.68 0 0 Z " fill="#448267" transform="translate(88,171)"/>
<path d="M0 0 C0.33 0 0.66 0 1 0 C1.33 2.64 1.66 5.28 2 8 C6.455 8.99 6.455 8.99 11 10 C11 9.01 11 8.02 11 7 C10.01 6.67 9.02 6.34 8 6 C14.34746772 0.55931338 18.85959125 -0.31923172 27 0 C26.37321829 3.66172475 25.35548154 6.8818995 23.9375 10.3125 C23.57527344 11.19550781 23.21304688 12.07851562 22.83984375 12.98828125 C22.42412109 13.98408203 22.42412109 13.98408203 22 15 C21.01 15 20.02 15 19 15 C19 14.34 19 13.68 19 13 C11.41 13.33 3.82 13.66 -4 14 C-3.01 11.36 -2.02 8.72 -1 6 C-0.60919203 4.01043215 -0.25149128 2.01193023 0 0 Z " fill="#F5F7F7" transform="translate(116,74)"/>
<path d="M0 0 C1.41270977 0.00094105 2.82566298 0.03433223 4.23706055 0.09521484 C5.35844673 0.10794937 5.35844673 0.10794937 6.50248718 0.12094116 C8.87775118 0.15438706 11.24955149 0.22963421 13.6237793 0.30615234 C15.23896444 0.33626404 16.85420311 0.36363776 18.46948242 0.38818359 C22.41807168 0.45414733 26.36408945 0.55759475 30.3112793 0.68115234 C30.3112793 2.66115234 30.3112793 4.64115234 30.3112793 6.68115234 C17.4412793 6.68115234 4.5712793 6.68115234 -8.6887207 6.68115234 C-3.6887207 0.68115234 -3.6887207 0.68115234 0 0 Z " fill="#E6264D" transform="translate(143.688720703125,122.31884765625)"/>
<path d="M0 0 C15.51 0 31.02 0 47 0 C47 0.33 47 0.66 47 1 C46.12988281 1.07347656 46.12988281 1.07347656 45.2421875 1.1484375 C41.73879678 1.48374552 38.53754466 1.82081845 35.1875 2.9375 C32.11905632 3.96031456 29.31680538 4.45812998 26.125 4.9375 C21.05568391 5.72760537 16.71696446 7.00436119 12 9 C11.67 8.34 11.34 7.68 11 7 C10.01 7.66 9.02 8.32 8 9 C5.95703125 9.1953125 5.95703125 9.1953125 3.8125 9.125 C1.9253125 9.063125 1.9253125 9.063125 0 9 C0 6.03 0 3.06 0 0 Z " fill="#F0E1E4" transform="translate(70,67)"/>
<path d="M0 0 C0.33 0.66 0.66 1.32 1 2 C5.34184202 1.81535634 5.34184202 1.81535634 9 0 C10.56172745 -0.08685603 12.12729344 -0.10702219 13.69140625 -0.09765625 C14.63564453 -0.09443359 15.57988281 -0.09121094 16.55273438 -0.08789062 C17.54595703 -0.07951172 18.53917969 -0.07113281 19.5625 -0.0625 C20.55958984 -0.05798828 21.55667969 -0.05347656 22.58398438 -0.04882812 C25.05604849 -0.03700007 27.52799518 -0.02051849 30 0 C29.34 1.98 28.68 3.96 28 6 C15.46 6 2.92 6 -10 6 C-9.67 4.35 -9.34 2.7 -9 1 C-6.04335481 -0.4783226 -3.25770263 -0.06032783 0 0 Z " fill="#E8113E" transform="translate(105,87)"/>
<path d="M0 0 C0.79921875 0.01804687 1.5984375 0.03609375 2.421875 0.0546875 C3.02515625 0.07789062 3.6284375 0.10109375 4.25 0.125 C4.25 1.445 4.25 2.765 4.25 4.125 C2.30017465 5.53068804 0.29049422 6.8545036 -1.75 8.125 C-8.11155469 13.79564999 -8.11155469 13.79564999 -10.99609375 21.5078125 C-10.99957475 23.72869103 -10.92706048 25.91174394 -10.75 28.125 C-11.41 28.125 -12.07 28.125 -12.75 28.125 C-12.75 27.465 -12.75 26.805 -12.75 26.125 C-14.73 27.115 -16.71 28.105 -18.75 29.125 C-18.23590938 22.75550435 -16.06700479 17.59741055 -13.4375 11.8125 C-13.04626953 10.90693359 -12.65503906 10.00136719 -12.25195312 9.06835938 C-11.86330078 8.20404297 -11.47464844 7.33972656 -11.07421875 6.44921875 C-10.72447998 5.66635498 -10.37474121 4.88349121 -10.0144043 4.0769043 C-7.5303865 0.24224079 -4.32011392 -0.12706217 0 0 Z " fill="#F1F1F1" transform="translate(154.75,86.875)"/>
<path d="M0 0 C0.33 0.99 0.66 1.98 1 3 C1.66 2.67 2.32 2.34 3 2 C4.99960012 1.960008 7.00047242 1.95653201 9 2 C8.67 3.32 8.34 4.64 8 6 C8.66 6 9.32 6 10 6 C9.375 9.375 9.375 9.375 8 13 C5.125 14.25 5.125 14.25 2 15 C0.66209359 15.99387334 -0.67218122 16.9926892 -2 18 C-2.99 18 -3.98 18 -5 18 C-4.42934122 11.58008874 -2.32655091 5.98410537 0 0 Z " fill="#EBE6E6" transform="translate(119,103)"/>
<path d="M0 0 C0.99 0.33 1.98 0.66 3 1 C2.74481529 3.27264504 2.47030939 5.54312705 2.1875 7.8125 C2.03667969 9.07707031 1.88585937 10.34164062 1.73046875 11.64453125 C1 15 1 15 -0.37890625 16.96484375 C-2 18 -2 18 -5.125 17.75 C-8 17 -8 17 -9 16 C-9.07244053 13.98035801 -9.08377188 11.95832876 -9.0625 9.9375 C-9.05347656 8.83277344 -9.04445313 7.72804687 -9.03515625 6.58984375 C-9.02355469 5.73519531 -9.01195313 4.88054687 -9 4 C-4.545 3.505 -4.545 3.505 0 3 C0 2.01 0 1.02 0 0 Z " fill="#12603D" transform="translate(77,170)"/>
<path d="M0 0 C-0.59683594 0.23976563 -1.19367188 0.47953125 -1.80859375 0.7265625 C-4.45385504 2.26373751 -5.45286111 3.79099304 -7.0625 6.375 C-11.0133427 12.64185393 -11.0133427 12.64185393 -13 15 C-13.66 15 -14.32 15 -15 15 C-15 14.34 -15 13.68 -15 13 C-16.65 12.67 -18.3 12.34 -20 12 C-20.33 12.99 -20.66 13.98 -21 15 C-21.66 15 -22.32 15 -23 15 C-22.51934799 11.3498311 -21.79682847 8.23327608 -20 5 C-16.51379754 2.88764368 -12.95151949 1.91188911 -9 1 C-8.28199219 0.80664062 -7.56398438 0.61328125 -6.82421875 0.4140625 C-4.52171335 -0.10856185 -2.35239889 -0.06534441 0 0 Z " fill="#F6F3F5" transform="translate(107,102)"/>
<path d="M0 0 C1.98 0 3.96 0 6 0 C7.58200941 3.16401881 7.06168567 6.53874837 7 10 C6.7763932 12.9254644 6.7763932 12.9254644 8 15 C5.36 15 2.72 15 0 15 C-0.33 13.68 -0.66 12.36 -1 11 C-1.66 12.32 -2.32 13.64 -3 15 C-3.36402369 13.56496445 -3.71586591 12.12683494 -4.0625 10.6875 C-4.25972656 9.88699219 -4.45695312 9.08648437 -4.66015625 8.26171875 C-5 6 -5 6 -4 3 C-3.01 2.67 -2.02 2.34 -1 2 C-0.67 1.34 -0.34 0.68 0 0 Z " fill="#EEEDED" transform="translate(87,114)"/>
<path d="M0 0 C6.6 0 13.2 0 20 0 C20 1.98 20 3.96 20 6 C12.41 6 4.82 6 -3 6 C-2.01 4.02 -1.02 2.04 0 0 Z " fill="#E6254B" transform="translate(154,79)"/>
<path d="M0 0 C7.26 0 14.52 0 22 0 C22 1.98 22 3.96 22 6 C15.4 6 8.8 6 2 6 C1.34 4.02 0.68 2.04 0 0 Z " fill="#E6274D" transform="translate(152,61)"/>
<path d="M0 0 C3.63 0 7.26 0 11 0 C11 4.29 11 8.58 11 13 C7.37 13 3.74 13 0 13 C0 8.71 0 4.42 0 0 Z " fill="#0F603B" transform="translate(55,174)"/>
<path d="M0 0 C6.93359375 -0.09765625 6.93359375 -0.09765625 9 0 C10 1 10 1 10.09765625 3.72265625 C10.08605469 4.82480469 10.07445312 5.92695313 10.0625 7.0625 C10.05347656 8.16722656 10.04445312 9.27195313 10.03515625 10.41015625 C10.02355469 11.26480469 10.01195312 12.11945313 10 13 C8.68 13 7.36 13 6 13 C5.67 11.68 5.34 10.36 5 9 C4.67 10.32 4.34 11.64 4 13 C2.35 13 0.7 13 -1 13 C-0.67 8.71 -0.34 4.42 0 0 Z " fill="#0E5D39" transform="translate(134,174)"/>
<path d="M0 0 C2.475 0.495 2.475 0.495 5 1 C6.65 0.67 8.3 0.34 10 0 C10 4.29 10 8.58 10 13 C5 12 5 12 4 11 C4 11.66 4 12.32 4 13 C2.68 13 1.36 13 0 13 C0 8.71 0 4.42 0 0 Z " fill="#0F5F3B" transform="translate(158,174)"/>
<path d="M0 0 C1.21236328 0.01353516 1.21236328 0.01353516 2.44921875 0.02734375 C3.37154297 0.04474609 3.37154297 0.04474609 4.3125 0.0625 C3.70397692 3.61221796 2.92903196 6.82943609 1.3125 10.0625 C-2.16075181 11.2202506 -5.04817448 11.13116652 -8.6875 11.0625 C-9.90130846 5.72174276 -9.90130846 5.72174276 -8.9375 2.75 C-6.63342041 -0.36050744 -3.56066958 -0.05160391 0 0 Z " fill="#EBEBEB" transform="translate(138.6875,73.9375)"/>
<path d="M0 0 C2.475 0.495 2.475 0.495 5 1 C6.65 0.67 8.3 0.34 10 0 C10 4.29 10 8.58 10 13 C8.35 13 6.7 13 5 13 C4.67 12.01 4.34 11.02 4 10 C3.67 10.99 3.34 11.98 3 13 C2.01 13 1.02 13 0 13 C0 8.71 0 4.42 0 0 Z " fill="#0B5D38" transform="translate(92,174)"/>
<path d="M0 0 C6.27 0 12.54 0 19 0 C19 1.98 19 3.96 19 6 C12.73 6 6.46 6 0 6 C0 4.02 0 2.04 0 0 Z " fill="#E8294F" transform="translate(155,70)"/>
<path d="M0 0 C6.93359375 -0.09765625 6.93359375 -0.09765625 9 0 C10 1 10 1 10.0625 4.5625 C10.041875 5.696875 10.02125 6.83125 10 8 C8.35 8.33 6.7 8.66 5 9 C5 10.32 5 11.64 5 13 C3.35 13 1.7 13 0 13 C0 8.71 0 4.42 0 0 Z " fill="#266E4E" transform="translate(44,174)"/>
<path d="M0 0 C1.98 0 3.96 0 6 0 C6.33872513 1.41538717 6.67074624 2.83237963 7 4.25 C7.185625 5.03890625 7.37125 5.8278125 7.5625 6.640625 C8 9 8 9 8 13 C4.7 13 1.4 13 -2 13 C-2.19294408 8.17639811 -1.75747614 4.50353262 0 0 Z " fill="#13623E" transform="translate(148,174)"/>
<path d="M0 0 C7.26 0 14.52 0 22 0 C21 5 21 5 20 6 C17.32941149 6.14115161 14.67567762 6.04247107 12 6 C12 5.34 12 4.68 12 4 C9.36 4 6.72 4 4 4 C4 4.66 4 5.32 4 6 C2.68 5.67 1.36 5.34 0 5 C0 3.35 0 1.7 0 0 Z " fill="#E5254C" transform="translate(109,96)"/>
<path d="M0 0 C3.5625 0.125 3.5625 0.125 5.5625 1.125 C5.5625 2.115 5.5625 3.105 5.5625 4.125 C2.5925 3.63 2.5925 3.63 -0.4375 3.125 C-0.4375 5.765 -0.4375 8.405 -0.4375 11.125 C0.2225 11.125 0.8825 11.125 1.5625 11.125 C1.2325 9.475 0.9025 7.825 0.5625 6.125 C2.2125 6.125 3.8625 6.125 5.5625 6.125 C5.60504356 8.12454746 5.60330783 10.12541636 5.5625 12.125 C4.5625 13.125 4.5625 13.125 2.75 13.2578125 C2.028125 13.25523437 1.30625 13.25265625 0.5625 13.25 C-0.159375 13.25257813 -0.88125 13.25515625 -1.625 13.2578125 C-3.4375 13.125 -3.4375 13.125 -4.4375 12.125 C-4.53601171 10.29384117 -4.56722629 8.45880067 -4.5625 6.625 C-4.56507813 5.6246875 -4.56765625 4.624375 -4.5703125 3.59375 C-4.36315828 -0.25688146 -3.98956351 0.14507504 0 0 Z " fill="#0F5E3A" transform="translate(174.4375,173.875)"/>
<path d="M0 0 C1.134375 0.020625 2.26875 0.04125 3.4375 0.0625 C3.7675 1.3825 4.0975 2.7025 4.4375 4.0625 C3.1175 4.0625 1.7975 4.0625 0.4375 4.0625 C0.4375 4.7225 0.4375 5.3825 0.4375 6.0625 C1.7575 6.0625 3.0775 6.0625 4.4375 6.0625 C4.4375 8.3725 4.4375 10.6825 4.4375 13.0625 C-1.71484375 13.16015625 -1.71484375 13.16015625 -3.5625 13.0625 C-4.5625 12.0625 -4.5625 12.0625 -4.6953125 9.59375 C-4.69273438 8.5934375 -4.69015625 7.593125 -4.6875 6.5625 C-4.69007812 5.5621875 -4.69265625 4.561875 -4.6953125 3.53125 C-4.48464445 -0.38469719 -4.07842371 0.07155129 0 0 Z " fill="#1B6645" transform="translate(108.5625,173.9375)"/>
<path d="M0 0 C2.9375 0.875 2.9375 0.875 4.9375 3.875 C4.6133631 7.19740324 4.32973697 8.48276303 1.9375 10.875 C-1.0625 11.1875 -1.0625 11.1875 -4.0625 10.875 C-6.21752531 7.64246204 -6.53106135 6.62349077 -6.0625 2.875 C-4.29035152 -0.0785808 -3.47140412 -0.14168996 0 0 Z " fill="#E8AAB7" transform="translate(186.0625,35.125)"/>
<path d="M0 0 C5.28 0 10.56 0 16 0 C16 1.98 16 3.96 16 6 C10.72 6 5.44 6 0 6 C0 4.02 0 2.04 0 0 Z " fill="#E7254B" transform="translate(49,114)"/>
<path d="M0 0 C5.28 0 10.56 0 16 0 C16 1.98 16 3.96 16 6 C10.72 6 5.44 6 0 6 C0 4.02 0 2.04 0 0 Z " fill="#E72349" transform="translate(49,96)"/>
<path d="M0 0 C5.28 0 10.56 0 16 0 C16 1.98 16 3.96 16 6 C10.72 6 5.44 6 0 6 C0 4.02 0 2.04 0 0 Z " fill="#E8284D" transform="translate(49,87)"/>
<path d="M0 0 C5.28 0 10.56 0 16 0 C16 1.98 16 3.96 16 6 C10.72 6 5.44 6 0 6 C0 4.02 0 2.04 0 0 Z " fill="#E53358" transform="translate(49,79)"/>
<path d="M0 0 C5.28 0 10.56 0 16 0 C16 1.98 16 3.96 16 6 C10.72 6 5.44 6 0 6 C0 4.02 0 2.04 0 0 Z " fill="#E33259" transform="translate(49,61)"/>
<path d="M0 0 C3.63 0 7.26 0 11 0 C11 1.98 11 3.96 11 6 C10.01 6 9.02 6 8 6 C8 8.31 8 10.62 8 13 C6.35 13 4.7 13 3 13 C2.67 10.69 2.34 8.38 2 6 C1.34 6 0.68 6 0 6 C0 4.02 0 2.04 0 0 Z " fill="#085B36" transform="translate(121,174)"/>
<path d="M0 0 C4.95 0 9.9 0 15 0 C15 1.98 15 3.96 15 6 C10.05 6 5.1 6 0 6 C0 4.02 0 2.04 0 0 Z " fill="#E31A42" transform="translate(49,105)"/>
<path d="M0 0 C4.95 0 9.9 0 15 0 C15 1.98 15 3.96 15 6 C10.05 6 5.1 6 0 6 C0 4.02 0 2.04 0 0 Z " fill="#E61A42" transform="translate(49,52)"/>
<path d="M0 0 C4.95 0 9.9 0 15 0 C15 1.65 15 3.3 15 5 C10.05 5 5.1 5 0 5 C0 3.35 0 1.7 0 0 Z " fill="#E9103C" transform="translate(49,132)"/>
<path d="M0 0 C4.95 0 9.9 0 15 0 C15 1.65 15 3.3 15 5 C10.05 5 5.1 5 0 5 C0 3.35 0 1.7 0 0 Z " fill="#E9103C" transform="translate(49,123)"/>
<path d="M0 0 C4.95 0 9.9 0 15 0 C15 1.65 15 3.3 15 5 C10.05 5 5.1 5 0 5 C0 3.35 0 1.7 0 0 Z " fill="#E9103C" transform="translate(49,70)"/>
<path d="M0 0 C5.94 0 11.88 0 18 0 C11.38733047 4.40844635 7.98190528 6.5601337 0 6 C0 4.02 0 2.04 0 0 Z " fill="#E72349" transform="translate(70,70)"/>
<path d="M0 0 C0.99 0.33 1.98 0.66 3 1 C1 3 -1 5 -3 7 C-3.23427778 9.01594582 -3.41336124 11.038474 -3.5625 13.0625 C-3.64628906 14.16722656 -3.73007813 15.27195312 -3.81640625 16.41015625 C-3.87699219 17.26480469 -3.93757813 18.11945313 -4 19 C-7 17 -7 17 -7.51171875 15.0546875 C-7.67447917 13.03645833 -7.83723958 11.01822917 -8 9 C-10.31 8.34 -12.62 7.68 -15 7 C-14.67 6.34 -14.34 5.68 -14 5 C-12.109375 4.7265625 -12.109375 4.7265625 -9.75 4.625 C-5.32650425 4.25988606 -3.35027706 2.95612682 0 0 Z " fill="#E8EDEC" transform="translate(122,63)"/>
<path d="M0 0 C0 1.65 0 3.3 0 5 C1.65 4.34 3.3 3.68 5 3 C5 3.99 5 4.98 5 6 C2.69 6.33 0.38 6.66 -2 7 C-2.33 6.01 -2.66 5.02 -3 4 C-7.455 4.495 -7.455 4.495 -12 5 C-12.33 5.99 -12.66 6.98 -13 8 C-13.66 8 -14.32 8 -15 8 C-14.8125 5.625 -14.8125 5.625 -14 3 C-9.59395064 0.5521948 -4.97701143 0 0 0 Z " fill="#E6E9E7" transform="translate(108,83)"/>
<path d="M0 0 C0.99 0.33 1.98 0.66 3 1 C2.69177379 3.2922454 2.37829126 5.58378455 2.0625 7.875 C1.88847656 9.15117187 1.71445313 10.42734375 1.53515625 11.7421875 C1 15 1 15 0 17 C-1.32 16.67 -2.64 16.34 -4 16 C-3.67 12.04 -3.34 8.08 -3 4 C-2.01 3.67 -1.02 3.34 0 3 C0 2.01 0 1.02 0 0 Z " fill="#075731" transform="translate(77,170)"/>
<path d="M0 0 C1.134375 0.020625 2.26875 0.04125 3.4375 0.0625 C1.4575 1.0525 1.4575 1.0525 -0.5625 2.0625 C-0.5625 5.0325 -0.5625 8.0025 -0.5625 11.0625 C0.7575 11.7225 2.0775 12.3825 3.4375 13.0625 C1.10455225 13.10491723 -1.22952567 13.10342937 -3.5625 13.0625 C-4.5625 12.0625 -4.5625 12.0625 -4.6953125 9.59375 C-4.69273438 8.5934375 -4.69015625 7.593125 -4.6875 6.5625 C-4.69007812 5.5621875 -4.69265625 4.561875 -4.6953125 3.53125 C-4.48464445 -0.38469719 -4.07842371 0.07155129 0 0 Z " fill="#085C37" transform="translate(84.5625,173.9375)"/>
<path d="M0 0 C0.33 0.66 0.66 1.32 1 2 C2.98 2 4.96 2 7 2 C6.67 2.99 6.34 3.98 6 5 C-1.92 5.495 -1.92 5.495 -10 6 C-9.67 4.35 -9.34 2.7 -9 1 C-6.04335481 -0.4783226 -3.25770263 -0.06032783 0 0 Z " fill="#E62A4E" transform="translate(105,87)"/>
<path d="M0 0 C0.99 0 1.98 0 3 0 C3 0.66 3 1.32 3 2 C8.445 1.01 8.445 1.01 14 0 C13.5020163 3.73487777 13.12508244 5.81237635 11 9 C10.34 9 9.68 9 9 9 C9 8.01 9 7.02 9 6 C6.69 6 4.38 6 2 6 C1.34 4.02 0.68 2.04 0 0 Z " fill="#F9F5F6" transform="translate(118,100)"/>
<path d="M0 0 C1.98 0.495 1.98 0.495 4 1 C4.87867729 4.73437848 5.08912219 8.16774573 5 12 C3.68 12 2.36 12 1 12 C-1.22923777 7.67265609 -0.92470553 4.71599818 0 0 Z " fill="#11613D" transform="translate(139,175)"/>
<path d="M0 0 C-0.86625 0.37125 -0.86625 0.37125 -1.75 0.75 C-4.12162133 1.93275056 -4.12162133 1.93275056 -6.0625 4.0625 C-8 6 -8 6 -11 7 C-11.33 7.66 -11.66 8.32 -12 9 C-13.98 9 -15.96 9 -18 9 C-18 8.34 -18 7.68 -18 7 C-16.68212715 5.97971135 -15.34789347 4.98028616 -14 4 C-13.67 3.34 -13.34 2.68 -13 2 C-8.55499776 0.66649933 -4.6681169 -0.29175731 0 0 Z " fill="#D0DBD6" transform="translate(107,102)"/>
<path d="M0 0 C2.97 0 5.94 0 9 0 C8.125 4.875 8.125 4.875 7 6 C4.66702567 6.04092937 2.33294775 6.04241723 0 6 C0 4.02 0 2.04 0 0 Z " fill="#E5264C" transform="translate(70,96)"/>
<path d="M0 0 C3.3 0 6.6 0 10 0 C9.34 1.98 8.68 3.96 8 6 C5.69 6 3.38 6 1 6 C0.67 4.02 0.34 2.04 0 0 Z " fill="#E52A50" transform="translate(129,79)"/>
<path d="M0 0 C1.47906892 -0.02689216 2.95827483 -0.04634621 4.4375 -0.0625 C5.26121094 -0.07410156 6.08492187 -0.08570313 6.93359375 -0.09765625 C9 0 9 0 10 1 C10.04092937 3.33297433 10.04241723 5.66705225 10 8 C8.35 8.33 6.7 8.66 5 9 C4.67 8.34 4.34 7.68 4 7 C4.66 7 5.32 7 6 7 C6 5.02 6 3.04 6 1 C4.35 1 2.7 1 1 1 C0.67 1.99 0.34 2.98 0 4 C0 2.68 0 1.36 0 0 Z " fill="#0A5B36" transform="translate(44,174)"/>
<path d="M0 0 C6.93 0 13.86 0 21 0 C20.34 1.32 19.68 2.64 19 4 C19 3.34 19 2.68 19 2 C12.73 2 6.46 2 0 2 C0 1.34 0 0.68 0 0 Z " fill="#E43C5E" transform="translate(114,87)"/>
<path d="M0 0 C1 3 1 3 0.00390625 5.26171875 C-0.47175781 6.06222656 -0.94742188 6.86273438 -1.4375 7.6875 C-2.14712891 8.89986328 -2.14712891 8.89986328 -2.87109375 10.13671875 C-3.24363281 10.75160156 -3.61617187 11.36648437 -4 12 C-4.99 11.67 -5.98 11.34 -7 11 C-5.72278474 6.00724943 -3.82669043 3.42388092 0 0 Z " fill="#E1E9E6" transform="translate(157,99)"/>
<path d="M0 0 C2 3 2 3 2 5 C3.32 5.33 4.64 5.66 6 6 C5.34 6 4.68 6 4 6 C4 6.66 4 7.32 4 8 C1.36 8 -1.28 8 -4 8 C-4 7.34 -4 6.68 -4 6 C-5.32 5.67 -6.64 5.34 -8 5 C-6.576875 4.87625 -6.576875 4.87625 -5.125 4.75 C-1.89538209 4.34925077 -1.89538209 4.34925077 -0.625 1.9375 C-0.41875 1.298125 -0.2125 0.65875 0 0 Z " fill="#E7E7E7" transform="translate(108,124)"/>
<path d="M0 0 C0.66 0 1.32 0 2 0 C1.98839844 0.84304687 1.97679688 1.68609375 1.96484375 2.5546875 C1.95582031 3.65039062 1.94679688 4.74609375 1.9375 5.875 C1.92589844 6.96554688 1.91429688 8.05609375 1.90234375 9.1796875 C1.80255697 11.95177546 1.80255697 11.95177546 3 14 C1.68 13.67 0.36 13.34 -1 13 C-1.02686553 11.02090602 -1.04633375 9.04171029 -1.0625 7.0625 C-1.07410156 5.96035156 -1.08570312 4.85820312 -1.09765625 3.72265625 C-1 1 -1 1 0 0 Z " fill="#729F8B" transform="translate(72,174)"/>
<path d="M0 0 C2.97 0 5.94 0 9 0 C9 1.98 9 3.96 9 6 C7.35 6 5.7 6 4 6 C3.896875 5.360625 3.79375 4.72125 3.6875 4.0625 C3.460625 3.381875 3.23375 2.70125 3 2 C2.01 1.67 1.02 1.34 0 1 C0 0.67 0 0.34 0 0 Z " fill="#E43154" transform="translate(165,87)"/>
<path d="M0 0 C4.29 0 8.58 0 13 0 C13 0.99 13 1.98 13 3 C8.71 3 4.42 3 0 3 C0 2.01 0 1.02 0 0 Z " fill="#EB1C42" transform="translate(50,80)"/>
<path d="M0 0 C4.29 0 8.58 0 13 0 C13 0.99 13 1.98 13 3 C8.71 3 4.42 3 0 3 C0 2.01 0 1.02 0 0 Z " fill="#EB1D43" transform="translate(50,63)"/>
<path d="M0 0 C1.65 0 3.3 0 5 0 C5.99 1.98 6.98 3.96 8 6 C5.36 6 2.72 6 0 6 C0 4.02 0 2.04 0 0 Z " fill="#E42F54" transform="translate(87,123)"/>
<path d="M0 0 C1.98 0 3.96 0 6 0 C6 1.98 6 3.96 6 6 C4.02 6 2.04 6 0 6 C0 4.02 0 2.04 0 0 Z " fill="#E53759" transform="translate(70,79)"/>
<path d="M0 0 C0.33 0.66 0.66 1.32 1 2 C3.02463255 2.65213292 3.02463255 2.65213292 5 3 C5.5625 4.9375 5.5625 4.9375 6 7 C5 8 5 8 1.9375 8.0625 C0.968125 8.041875 -0.00125 8.02125 -1 8 C-1 5.16032769 -0.59732819 2.76264289 0 0 Z " fill="#E08396" transform="translate(183,38)"/>
<path d="M0 0 C1.98 0 3.96 0 6 0 C5.67 1.98 5.34 3.96 5 6 C3.02 6 1.04 6 -1 6 C-0.67 4.02 -0.34 2.04 0 0 Z " fill="#E3244B" transform="translate(87,114)"/>
<path d="M0 0 C2.97 0 5.94 0 9 0 C1.6 6 1.6 6 -2 6 C-1.34 4.02 -0.68 2.04 0 0 Z " fill="#E22F53" transform="translate(150,87)"/>
<path d="M0 0 C1.98 0 3.96 0 6 0 C5.34 1.98 4.68 3.96 4 6 C2.02 6 0.04 6 -2 6 C-1.34 4.02 -0.68 2.04 0 0 Z " fill="#E11C45" transform="translate(122,105)"/>
<path d="M0 0 C1.65 0 3.3 0 5 0 C5 1.98 5 3.96 5 6 C3.02 6 1.04 6 -1 6 C-0.67 4.02 -0.34 2.04 0 0 Z " fill="#E3264C" transform="translate(169,96)"/>
<path d="M0 0 C0.66 0 1.32 0 2 0 C2.19477739 1.62414378 2.38059458 3.24936423 2.5625 4.875 C2.66691406 5.77992188 2.77132812 6.68484375 2.87890625 7.6171875 C3 10 3 10 2 12 C0.68 11.67 -0.64 11.34 -2 11 C-1.67 10.67 -1.34 10.34 -1 10 C-0.76712992 8.31816052 -0.58735834 6.6287584 -0.4375 4.9375 C-0.35371094 4.01839844 -0.26992187 3.09929687 -0.18359375 2.15234375 C-0.12300781 1.44207031 -0.06242187 0.73179687 0 0 Z " fill="#11613E" transform="translate(75,175)"/>
<path d="M0 0 C1.65 0 3.3 0 5 0 C5 1.98 5 3.96 5 6 C3.35 6 1.7 6 0 6 C0 4.02 0 2.04 0 0 Z " fill="#E3294E" transform="translate(70,87)"/>
<path d="M0 0 C2.4375 0.6875 2.4375 0.6875 5 2 C5.8125 4.625 5.8125 4.625 6 7 C4.02 7 2.04 7 0 7 C0 4.69 0 2.38 0 0 Z " fill="#236949" transform="translate(146,180)"/>
<path d="M0 0 C0.598125 0.226875 1.19625 0.45375 1.8125 0.6875 C1.4825 1.3475 1.1525 2.0075 0.8125 2.6875 C-0.1775 2.6875 -1.1675 2.6875 -2.1875 2.6875 C-2.1875 4.6675 -2.1875 6.6475 -2.1875 8.6875 C-3.1775 8.3575 -4.1675 8.0275 -5.1875 7.6875 C-5.41803497 4.84423536 -5.54653101 3.22604651 -3.9375 0.8125 C-2.1875 -0.3125 -2.1875 -0.3125 0 0 Z " fill="#E7A0B0" transform="translate(185.1875,35.3125)"/>
<path d="M0 0 C1.32 0 2.64 0 4 0 C4 2.31 4 4.62 4 7 C1.36 7 -1.28 7 -4 7 C-1 5 -1 5 1 5 C1.66 3.68 2.32 2.36 3 1 C2.01 1.33 1.02 1.66 0 2 C0 1.34 0 0.68 0 0 Z " fill="#045730" transform="translate(109,180)"/>
<path d="M0 0 C3 4 3 4 3 8 C3.66 8 4.32 8 5 8 C5 8.66 5 9.32 5 10 C3.35 10 1.7 10 0 10 C0 6.7 0 3.4 0 0 Z " fill="#13603D" transform="translate(124,177)"/>
<path d="M0 0 C1.98 0.495 1.98 0.495 4 1 C4.33 2.32 4.66 3.64 5 5 C3.35 5.33 1.7 5.66 0 6 C-1.125 2.25 -1.125 2.25 0 0 Z " fill="#387A5D" transform="translate(139,175)"/>
<path d="M0 0 C1.32 0 2.64 0 4 0 C4 4.29 4 8.58 4 13 C3.67 13 3.34 13 3 13 C3 9.7 3 6.4 3 3 C2.34 3 1.68 3 1 3 C1 3.66 1 4.32 1 5 C0.34 4.67 -0.32 4.34 -1 4 C-0.67 2.68 -0.34 1.36 0 0 Z " fill="#2C6A4D" transform="translate(98,174)"/>
<path d="M0 0 C1.65 0 3.3 0 5 0 C5 3.3 5 6.6 5 10 C4.67 10 4.34 10 4 10 C3.67 8.02 3.34 6.04 3 4 C2.01 4.33 1.02 4.66 0 5 C0 3.35 0 1.7 0 0 Z " fill="#27694C" transform="translate(61,174)"/>
<path d="M0 0 C0.99 0 1.98 0 3 0 C3.33 1.65 3.66 3.3 4 5 C3.67 5 3.34 5 3 5 C2.67 7.97 2.34 10.94 2 14 C1.67 14 1.34 14 1 14 C0.67 9.38 0.34 4.76 0 0 Z " fill="#397459" transform="translate(88,171)"/>
<path d="M0 0 C2.97 0.495 2.97 0.495 6 1 C6 1.66 6 2.32 6 3 C4.35 3 2.7 3 1 3 C1.33 4.65 1.66 6.3 2 8 C1.34 8 0.68 8 0 8 C0 5.36 0 2.72 0 0 Z " fill="#C4D5CF" transform="translate(174,177)"/>
<path d="M0 0 C1.4540625 0.0309375 1.4540625 0.0309375 2.9375 0.0625 C0.9375 2.0625 0.9375 2.0625 -2.0625 3.0625 C-2.3925 6.0325 -2.7225 9.0025 -3.0625 12.0625 C-3.3925 12.0625 -3.7225 12.0625 -4.0625 12.0625 C-4.08937279 10.25007948 -4.10883715 8.43754767 -4.125 6.625 C-4.13660156 5.61566406 -4.14820312 4.60632813 -4.16015625 3.56640625 C-4.01596662 -0.13061575 -3.76355726 0.07680729 0 0 Z " fill="#065832" transform="translate(108.0625,173.9375)"/>
<path d="M0 0 C0 0.66 0 1.32 0 2 C-2.64 2.99 -5.28 3.98 -8 5 C-7 1 -7 1 -5.125 -0.3125 C-3 -1 -3 -1 0 0 Z " fill="#E2E7E5" transform="translate(94,106)"/>
<path d="M0 0 C0.33 0 0.66 0 1 0 C1 1.98 1 3.96 1 6 C-0.98 6 -2.96 6 -5 6 C-3.35830472 3.97945196 -1.69088222 1.97956942 0 0 Z " fill="#DF2D51" transform="translate(173,114)"/>
<path d="M0 0 C-0.99 1.485 -0.99 1.485 -2 3 C-5.125 3.1875 -5.125 3.1875 -8 3 C-8 2.34 -8 1.68 -8 1 C-3.375 -1.125 -3.375 -1.125 0 0 Z " fill="#DF254C" transform="translate(97,108)"/>
<path d="M0 0 C1.32 0 2.64 0 4 0 C3.67 1.98 3.34 3.96 3 6 C2.01 6 1.02 6 0 6 C0 4.02 0 2.04 0 0 Z " fill="#DF2249" transform="translate(70,105)"/>
</svg>
