<?xml version="1.0" encoding="UTF-8"?>
<svg version="1.1" xmlns="http://www.w3.org/2000/svg" width="144" height="144">
<path d="M0 0 C47.52 0 95.04 0 144 0 C144 47.52 144 95.04 144 144 C96.48 144 48.96 144 0 144 C0 96.48 0 48.96 0 0 Z " fill="#FBE7EA" transform="translate(0,0)"/>
<path d="M0 0 C47.52 0 95.04 0 144 0 C144 47.52 144 95.04 144 144 C96.48 144 48.96 144 0 144 C0 96.48 0 48.96 0 0 Z M2 11 C2 47.3 2 83.6 2 121 C44.9 121 87.8 121 132 121 C132 84.7 132 48.4 132 11 C89.1 11 46.2 11 2 11 Z " fill="#FCF9FA" transform="translate(0,0)"/>
<path d="M0 0 C0.76828125 -0.020625 1.5365625 -0.04125 2.328125 -0.0625 C3.07320313 -0.06765625 3.81828125 -0.0728125 4.5859375 -0.078125 C5.26446777 -0.0874707 5.94299805 -0.09681641 6.64208984 -0.10644531 C9.32777228 0.37632942 10.65848941 1.37775973 12.625 3.25 C14.40573821 7.0827412 14.2617746 11.13417725 13.05383301 15.14782715 C11.09992498 20.44440529 8.66591554 25.52748275 6.25 30.625 C5.17867458 32.93962168 4.11377849 35.25709343 3.0508728 37.57559204 C2.39059723 39.00983685 1.72421805 40.44129202 1.05093384 41.86947632 C-0.39305668 44.95350041 -1.74636477 47.88835437 -2.375 51.25 C-1.385 50.59 -0.395 49.93 0.625 49.25 C1.615 49.25 2.605 49.25 3.625 49.25 C3.03773335 52.87963418 1.58405107 54.75169217 -0.875 57.4375 C-1.81859375 58.47970703 -1.81859375 58.47970703 -2.78125 59.54296875 C-5.29943639 62.24014388 -5.29943639 62.24014388 -8.25 62.625 C-9.28125 62.50125 -10.3125 62.3775 -11.375 62.25 C-13.25 59.75 -13.25 59.75 -14.375 57.25 C-14.89449219 57.76691406 -15.41398437 58.28382812 -15.94921875 58.81640625 C-16.64660156 59.47511719 -17.34398437 60.13382813 -18.0625 60.8125 C-18.74699219 61.47378906 -19.43148437 62.13507813 -20.13671875 62.81640625 C-22.375 64.25 -22.375 64.25 -25.14453125 63.96484375 C-25.88058594 63.72894531 -26.61664063 63.49304688 -27.375 63.25 C-27.87 61.27 -27.87 61.27 -28.375 59.25 C-28.725625 60.075 -29.07625 60.9 -29.4375 61.75 C-31.375 64.25 -31.375 64.25 -34.875 64.8125 C-38.375 64.25 -38.375 64.25 -40.3125 62.8125 C-41.96542279 58.82603916 -42.19933945 55.49311157 -41.375 51.25 C-39.6610929 47.39495098 -37.61718482 43.82014547 -35.375 40.25 C-43.02157742 41.07485781 -43.02157742 41.07485781 -49.02734375 45.27734375 C-50.04718546 47.59026777 -50.78065365 49.79509117 -51.375 52.25 C-51.643125 53.24 -51.91125 54.23 -52.1875 55.25 C-52.249375 55.91 -52.31125 56.57 -52.375 57.25 C-52.045 57.58 -51.715 57.91 -51.375 58.25 C-50.98902074 63.26773041 -51.37727439 66.17309317 -54.375 70.25 C-55.375 71.25 -55.375 71.25 -58.8125 71.375 C-62.375 71.25 -62.375 71.25 -64.375 70.25 C-63.9219128 64.54110123 -62.99569369 59.69609012 -61.0703125 54.3125 C-60.17393252 51.65357511 -59.74531079 49.02733095 -59.375 46.25 C-59.04166667 44.25 -58.70833333 42.25 -58.375 40.25 C-56.89 39.755 -56.89 39.755 -55.375 39.25 C-54.38291599 36.98801919 -54.38291599 36.98801919 -53.75 34.3125 C-52.41834365 29.33668731 -52.41834365 29.33668731 -51.375 27.25 C-53.355 27.91 -55.335 28.57 -57.375 29.25 C-57.51036022 27.16846065 -57.60715465 25.08438794 -57.6875 23 C-57.77451172 21.25976562 -57.77451172 21.25976562 -57.86328125 19.484375 C-57.375 16.25 -57.375 16.25 -55.08984375 13.93359375 C-45.43262041 7.94472575 -34.49728897 7.63610743 -23.375 8.25 C-21.56850099 10.05649901 -22.11803034 12.68751042 -22.0625 15.125 C-22.00642578 16.72988281 -22.00642578 16.72988281 -21.94921875 18.3671875 C-22.375 21.25 -22.375 21.25 -24.20703125 23.1328125 C-26.375 24.25 -26.375 24.25 -29.375 24.25 C-29.375 23.26 -29.375 22.27 -29.375 21.25 C-33.335 21.91 -37.295 22.57 -41.375 23.25 C-42.695 27.21 -44.015 31.17 -45.375 35.25 C-43.89 34.755 -43.89 34.755 -42.375 34.25 C-38.28905167 33.0634874 -34.61157606 33.10134821 -30.375 33.25 C-30.705 35.23 -31.035 37.21 -31.375 39.25 C-30.385 39.58 -29.395 39.91 -28.375 40.25 C-28.94340682 43.80254263 -30.63377199 46.44137754 -32.453125 49.5 C-33.61031353 51.69669687 -34.07740608 53.79485016 -34.375 56.25 C-33.715 56.25 -33.055 56.25 -32.375 56.25 C-31.99988281 55.22326172 -31.99988281 55.22326172 -31.6171875 54.17578125 C-30.16800467 50.76245439 -28.40311715 47.61054106 -26.5 44.4375 C-26.16097656 43.84001953 -25.82195312 43.24253906 -25.47265625 42.62695312 C-24.4453125 40.91796875 -24.4453125 40.91796875 -22.375 38.25 C-21.055 38.25 -19.735 38.25 -18.375 38.25 C-18.94565878 44.66991126 -21.04844909 50.26589463 -23.375 56.25 C-22.281875 55.610625 -21.18875 54.97125 -20.0625 54.3125 C-17.7911709 52.98398675 -15.90060108 52.09186703 -13.375 51.25 C-12.385 51.745 -12.385 51.745 -11.375 52.25 C-11.27517822 51.58846924 -11.17535645 50.92693848 -11.07250977 50.24536133 C-10.18422152 46.43072763 -8.7246236 42.92427266 -7.21484375 39.32421875 C-6.90551407 38.57662796 -6.59618439 37.82903717 -6.27748108 37.05879211 C-5.2934082 34.68323655 -4.30305498 32.31035895 -3.3125 29.9375 C-2.64216128 28.32243857 -1.9722348 26.70720598 -1.30273438 25.09179688 C0.33507582 21.14253283 1.97852163 17.19565763 3.625 13.25 C2.1968542 13.20924435 0.7683687 13.18029009 -0.66015625 13.15625 C-1.45558838 13.13884766 -2.25102051 13.12144531 -3.07055664 13.10351562 C-6.30535571 13.30913904 -8.61179599 14.63251473 -11.375 16.25 C-12.035 16.25 -12.695 16.25 -13.375 16.25 C-13.375 16.91 -13.375 17.57 -13.375 18.25 C-12.385 18.58 -11.395 18.91 -10.375 19.25 C-10.375 19.91 -10.375 20.57 -10.375 21.25 C-13.345 20.92 -16.315 20.59 -19.375 20.25 C-19.9096231 15.80140778 -20.16873797 11.67600908 -19.375 7.25 C-16.77873292 4.34427886 -13.91343355 2.80844366 -10.375 1.25 C-7.12028133 -0.37735933 -3.57280619 0.02373958 0 0 Z " fill="#166845" transform="translate(92.375,24.75)"/>
<path d="M0 0 C1.48828125 1.26953125 1.48828125 1.26953125 3 3 C3.1875 6.6875 3.1875 6.6875 3 10 C5.97 10.33 8.94 10.66 12 11 C11.01 10.01 10.02 9.02 9 8 C9 7.34 9 6.68 9 6 C15.35874847 2.23185276 19.66626921 1.74534429 27 2 C26.34114583 3.64713542 25.68229167 5.29427083 25.0234375 6.94140625 C24.60280029 7.99392578 24.18216309 9.04644531 23.7487793 10.13085938 C22.83094859 12.42356035 21.91052618 14.71522545 20.98754883 17.00585938 C18.98986062 21.97167257 16.99926136 26.93203864 15.17578125 31.96484375 C14.91812988 32.66085693 14.66047852 33.35687012 14.39501953 34.07397461 C13.73246841 35.877586 13.09009208 37.68857255 12.44921875 39.5 C11 42 11 42 8.46484375 42.77734375 C7.65144531 42.85082031 6.83804688 42.92429688 6 43 C4.65724831 43.98731742 3.32267727 44.98594743 2 46 C1.01 46 0.02 46 -1 46 C-0.41632234 41.21384318 1.07917167 37.40189827 3 33 C3.69140522 30.22111387 3.69140522 30.22111387 4 28 C2.11990119 27.97607706 2.11990119 27.97607706 0 29 C-1.54855314 31.28484632 -2.85032572 33.44681819 -4.125 35.875 C-4.81440569 37.14360899 -5.50448719 38.41185101 -6.1953125 39.6796875 C-7.08863281 41.32324219 -7.08863281 41.32324219 -8 43 C-8.66 43.99 -9.32 44.98 -10 46 C-10.66 46 -11.32 46 -12 46 C-11.55966055 40.4957569 -10.15285436 37.47501909 -7 33 C-7 32.01 -7 31.02 -7 30 C-7.66 29.67 -8.32 29.34 -9 29 C-8.67 27.02 -8.34 25.04 -8 23 C-12.95 23.66 -17.9 24.32 -23 25 C-20.96189024 15.10060976 -20.96189024 15.10060976 -19 12 C-16.11788698 11.03929566 -14.30149956 10.89418117 -11.3125 10.9375 C-10.10013672 10.95103516 -10.10013672 10.95103516 -8.86328125 10.96484375 C-7.94095703 10.98224609 -7.94095703 10.98224609 -7 11 C-7 11.99 -7 12.98 -7 14 C-3.87129568 13.3155324 -3.87129568 13.3155324 -1 11 C-0.14178903 7.34045888 -0.01273347 3.75000564 0 0 Z " fill="#F2E1E4" transform="translate(70,35)"/>
<path d="M0 0 C0.99 0 1.98 0 3 0 C3 0.99 3 1.98 3 3 C5.31 3 7.62 3 10 3 C10 2.34 10 1.68 10 1 C11.32 1 12.64 1 14 1 C14 1.66 14 2.32 14 3 C15.32 3 16.64 3 18 3 C18.495 3.99 18.495 3.99 19 5 C19.33 4.34 19.66 3.68 20 3 C21.95825873 2.97305149 23.91662226 2.95362782 25.875 2.9375 C27.51082031 2.92009766 27.51082031 2.92009766 29.1796875 2.90234375 C32 3 32 3 34 4 C34 4.99 34 5.98 34 7 C32.35 6.67 30.7 6.34 29 6 C29.495 7.485 29.495 7.485 30 9 C31.65 9 33.3 9 35 9 C35 10.98 35 12.96 35 15 C28.54245886 18.51722985 22.70731011 18.40584055 15.4609375 18.328125 C14.26191803 18.32625183 13.06289856 18.32437866 11.82754517 18.32244873 C9.30101731 18.31574483 6.77449954 18.30186359 4.24804688 18.28125 C0.38141221 18.25005174 -3.48481432 18.24027093 -7.3515625 18.234375 C-9.8099008 18.22520591 -12.26823497 18.21483044 -14.7265625 18.203125 C-15.88185455 18.19887512 -17.03714661 18.19462524 -18.22744751 18.19024658 C-19.8447023 18.17583527 -19.8447023 18.17583527 -21.49462891 18.16113281 C-22.43948151 18.15430481 -23.38433411 18.14747681 -24.3578186 18.14044189 C-27 18 -27 18 -32 17 C-32 12.38 -32 7.76 -32 3 C-29.4374282 2.97289877 -26.87514635 2.95311229 -24.3125 2.9375 C-23.2306543 2.92493164 -23.2306543 2.92493164 -22.12695312 2.91210938 C-18.28444618 2.89456368 -14.73360474 3.06475779 -11 4 C-11 7.3 -11 10.6 -11 14 C-10.34 14 -9.68 14 -9 14 C-9 10.7 -9 7.4 -9 4 C-7.68 4 -6.36 4 -5 4 C-5 6.97 -5 9.94 -5 13 C-4.34 13 -3.68 13 -3 13 C-3 9.7 -3 6.4 -3 3 C-2.01 3 -1.02 3 0 3 C0 2.01 0 1.02 0 0 Z " fill="#CDDED7" transform="translate(34,126)"/>
<path d="M0 0 C42.9 0 85.8 0 130 0 C130 36.3 130 72.6 130 110 C87.1 110 44.2 110 0 110 C0 73.7 0 37.4 0 0 Z M2 2 C2 37.31 2 72.62 2 109 C43.58 109 85.16 109 128 109 C128 73.69 128 38.38 128 2 C86.42 2 44.84 2 2 2 Z " fill="#ED4968" transform="translate(2,11)"/>
<path d="M0 0 C39.27 0 78.54 0 119 0 C119 1.98 119 3.96 119 6 C79.73 6 40.46 6 0 6 C0 4.02 0 2.04 0 0 Z " fill="#EB3355" transform="translate(7,110)"/>
<path d="M0 0 C38.94 0 77.88 0 118 0 C118 1.65 118 3.3 118 5 C79.06 5 40.12 5 0 5 C0 3.35 0 1.7 0 0 Z " fill="#E92046" transform="translate(8,102)"/>
<path d="M0 0 C0.77251602 0.00359528 1.54503204 0.00719055 2.34095764 0.01089478 C3.55549622 0.01067574 3.55549622 0.01067574 4.79457092 0.01045227 C7.48380671 0.01115163 10.17297412 0.01894507 12.86219788 0.02676392 C14.72164878 0.02862802 16.58110018 0.03005196 18.44055176 0.03105164 C23.34458258 0.03487746 28.24858398 0.04470829 33.15260315 0.05575562 C38.15280255 0.06596836 43.15300669 0.07054896 48.1532135 0.07559204 C57.97158583 0.0863305 67.78993629 0.10340769 77.60829163 0.12442017 C77.60829163 2.10442017 77.60829163 4.08442017 77.60829163 6.12442017 C49.22829163 6.12442017 20.84829163 6.12442017 -8.39170837 6.12442017 C-5.94661318 0.01168218 -5.94661318 0.01168218 0 0 Z " fill="#E81C42" transform="translate(48.39170837402344,90.87557983398438)"/>
<path d="M0 0 C0.66 0.33 1.32 0.66 2 1 C2.18153682 5.62918896 1.84000043 8.77882254 0 13 C-0.37593066 14.9924325 -0.71979545 16.9918674 -1 19 C0.11375 18.5359375 0.11375 18.5359375 1.25 18.0625 C3.50692176 17.1905075 5.6450153 16.52332993 8 16 C7.11587299 20.76797065 4.5058161 23.76451188 1 27 C-1.6875 28.125 -1.6875 28.125 -4 28 C-5.8125 26.5625 -5.8125 26.5625 -7 25 C-7.66 25.99 -8.32 26.98 -9 28 C-12.375 28.5 -12.375 28.5 -16 28 C-18.6857562 25.86516815 -19.77336817 24.27100736 -20.37890625 20.875 C-20.66521567 15.40741363 -19.66702346 12.21707698 -16 8 C-7.30038023 -0.30418251 -7.30038023 -0.30418251 0 0 Z " fill="#176846" transform="translate(117,52)"/>
<path d="M0 0 C5.94 0 11.88 0 18 0 C18 1.98 18 3.96 18 6 C9.585 6.495 9.585 6.495 1 7 C6.61 7.33 12.22 7.66 18 8 C18 9.98 18 11.96 18 14 C13.71 14.66 9.42 15.32 5 16 C6.32 16.66 7.64 17.32 9 18 C9 17.34 9 16.68 9 16 C11.97 16 14.94 16 18 16 C18 17.98 18 19.96 18 22 C16.35 22 14.7 22 13 22 C13 22.66 13 23.32 13 24 C14.65 24.33 16.3 24.66 18 25 C18 26.98 18 28.96 18 31 C12.25 31.125 12.25 31.125 10 30 C10.33 26.7 10.66 23.4 11 20 C5.71092985 19.43331391 2.97692902 19.59625277 -1.3125 22.875 C-2.54634081 23.91112595 -3.77593042 24.95234843 -5 26 C-5.99 26.66 -6.98 27.32 -8 28 C-8.99 27.01 -9.98 26.02 -11 25 C-8.76518327 17.55061091 -5.58052094 10.89175479 -2 4 C-1.34 2.68 -0.68 1.36 0 0 Z " fill="#F3E3E5" transform="translate(108,33)"/>
<path d="M0 0 C32.34 0 64.68 0 98 0 C98 1.65 98 3.3 98 5 C65.66 5 33.32 5 0 5 C0 3.35 0 1.7 0 0 Z " fill="#E92247" transform="translate(28,16)"/>
<path d="M0 0 C3.4372166 -0.11604679 6.87393086 -0.18719508 10.3125 -0.25 C11.28896484 -0.28351563 12.26542969 -0.31703125 13.27148438 -0.3515625 C14.20927734 -0.36445313 15.14707031 -0.37734375 16.11328125 -0.390625 C16.97735596 -0.41157227 17.84143066 -0.43251953 18.73168945 -0.45410156 C21 0 21 0 22.80541992 2.02441406 C23.19963135 2.67635742 23.59384277 3.32830078 24 4 C24.66 2.68 25.32 1.36 26 0 C27.98 0 29.96 0 32 0 C34.3992233 4.64849515 34.19957409 8.91086074 34 14 C28.61834524 15.1171145 23.40549251 15.14899997 17.9375 15.125 C17.05255859 15.12886719 16.16761719 15.13273438 15.25585938 15.13671875 C11.04595477 15.13040231 7.10250819 15.0746695 3 14 C3 11.36 3 8.72 3 6 C2.01 6 1.02 6 0 6 C0 4.02 0 2.04 0 0 Z " fill="#D6E4DE" transform="translate(75,129)"/>
<path d="M0 0 C1.32 0 2.64 0 4 0 C4 0.66 4 1.32 4 2 C5.32 2 6.64 2 8 2 C8.33 2.66 8.66 3.32 9 4 C10.32 3.67 11.64 3.34 13 3 C13 6.96 13 10.92 13 15 C11.68 15 10.36 15 9 15 C8.67 14.01 8.34 13.02 8 12 C7.67 12.99 7.34 13.98 7 15 C6.01 15 5.02 15 4 15 C3.67 11.7 3.34 8.4 3 5 C2.855625 6.464375 2.71125 7.92875 2.5625 9.4375 C2.125 13.875 2.125 13.875 1 15 C-2.4375 15.1875 -2.4375 15.1875 -6 15 C-8 13 -8 13 -8.265625 10.90625 C-8.25789063 9.71515625 -8.25789063 9.71515625 -8.25 8.5 C-8.25515625 7.7059375 -8.2603125 6.911875 -8.265625 6.09375 C-8 4 -8 4 -6 2 C-2.875 1.875 -2.875 1.875 0 2 C0 1.34 0 0.68 0 0 Z " fill="#3E8165" transform="translate(44,127)"/>
<path d="M0 0 C16.5 0 33 0 50 0 C45 5 45 5 42.69035339 5.60127258 C41.90203629 5.59016953 41.11371918 5.57906647 40.30151367 5.56762695 C39.40095749 5.5672493 38.50040131 5.56687164 37.57255554 5.56648254 C36.6140419 5.54067612 35.65552826 5.51486969 34.66796875 5.48828125 C33.67622147 5.48120651 32.68447418 5.47413177 31.66267395 5.46684265 C28.50350658 5.43891433 25.34612918 5.3761772 22.1875 5.3125 C20.04234335 5.28741518 17.89715885 5.26460234 15.75195312 5.24414062 C10.50069416 5.18909327 5.25047497 5.1054831 0 5 C0 3.35 0 1.7 0 0 Z " fill="#E92046" transform="translate(28,25)"/>
<path d="M0 0 C-1.04781232 2.74043223 -2.15921234 5.2929507 -3.5625 7.875 C-5.13483856 11.29312731 -5.62734133 14.27341329 -6 18 C-6.66 17.34 -7.32 16.68 -8 16 C-7.67 18.31 -7.34 20.62 -7 23 C-9.31 23 -11.62 23 -14 23 C-14 21.02 -14 19.04 -14 17 C-15.32 16.67 -16.64 16.34 -18 16 C-17.57316761 14.41375765 -17.13303842 12.8310902 -16.6875 11.25 C-16.32205078 9.92742187 -16.32205078 9.92742187 -15.94921875 8.578125 C-14.96224089 5.89744439 -13.90276754 4.12049716 -12 2 C-7.8997803 0.17768013 -4.45927519 -0.21234644 0 0 Z " fill="#DCD0CF" transform="translate(57,65)"/>
<path d="M0 0 C2.64 0 5.28 0 8 0 C8.33 0.66 8.66 1.32 9 2 C12.81813447 1.72459296 12.81813447 1.72459296 16 0 C17.4887186 -0.08669432 18.981445 -0.10703494 20.47265625 -0.09765625 C21.37177734 -0.09443359 22.27089844 -0.09121094 23.19726562 -0.08789062 C24.61555664 -0.07532227 24.61555664 -0.07532227 26.0625 -0.0625 C27.01189453 -0.05798828 27.96128906 -0.05347656 28.93945312 -0.04882812 C31.29303065 -0.0370011 33.64648477 -0.02052025 36 0 C35.67 1.98 35.34 3.96 35 6 C22.79 6 10.58 6 -2 6 C-1.34 4.02 -0.68 2.04 0 0 Z " fill="#EA2C50" transform="translate(53,49)"/>
<path d="M0 0 C14.52 0 29.04 0 44 0 C44 0.33 44 0.66 44 1 C41.75053579 1.46095578 39.50039199 1.9185952 37.25 2.375 C36.5698584 2.51365479 35.8897168 2.65230957 35.18896484 2.79516602 C31.01268377 3.63481832 26.84300791 4.33259189 22.625 4.9375 C18.77925975 5.53549714 15.73045005 6.45321431 12.25 8.1875 C7.75977728 10.41208932 4.84254713 10.05655574 0 9 C0 6.03 0 3.06 0 0 Z " fill="#F5D1D7" transform="translate(28,30)"/>
<path d="M0 0 C0.77251602 0.00359528 1.54503204 0.00719055 2.34095764 0.01089478 C3.55549622 0.01067574 3.55549622 0.01067574 4.79457092 0.01045227 C7.48380671 0.01115163 10.17297412 0.01894507 12.86219788 0.02676392 C14.72164878 0.02862802 16.58110018 0.03005196 18.44055176 0.03105164 C23.34458258 0.03487746 28.24858398 0.04470829 33.15260315 0.05575562 C38.15280255 0.06596836 43.15300669 0.07054896 48.1532135 0.07559204 C57.97158583 0.0863305 67.78993629 0.10340769 77.60829163 0.12442017 C77.60829163 2.10442017 77.60829163 4.08442017 77.60829163 6.12442017 C49.22829163 6.12442017 20.84829163 6.12442017 -8.39170837 6.12442017 C-5.94661318 0.01168218 -5.94661318 0.01168218 0 0 Z M-3.39170837 1.12442017 C-4.87670837 3.10442017 -4.87670837 3.10442017 -6.39170837 5.12442017 C20.99829163 5.12442017 48.38829163 5.12442017 76.60829163 5.12442017 C76.60829163 3.80442017 76.60829163 2.48442017 76.60829163 1.12442017 C66.22947594 1.031822 55.8507582 0.96070701 45.47161388 0.91717148 C40.65236022 0.89627865 35.83338873 0.86793023 31.01429749 0.82266235 C26.36533134 0.77926483 21.71663694 0.75529584 17.0674839 0.74491119 C15.29199761 0.73750883 13.51652652 0.72305398 11.74115562 0.70149994 C9.25798036 0.67254627 6.77593415 0.66846068 4.2926178 0.6703186 C3.55534454 0.6559375 2.81807129 0.6415564 2.05845642 0.6267395 C-0.22709213 0.6001002 -0.22709213 0.6001002 -3.39170837 1.12442017 Z " fill="#EF5E79" transform="translate(48.39170837402344,90.87557983398438)"/>
<path d="M0 0 C1.98 0 3.96 0 6 0 C7.00496852 3.01490557 7.10335303 5.04181692 7.0625 8.1875 C7.05347656 9.08855469 7.04445313 9.98960938 7.03515625 10.91796875 C7.02355469 11.60503906 7.01195312 12.29210938 7 13 C8.98 12.34 10.96 11.68 13 11 C10.56521739 19.86956522 10.56521739 19.86956522 9 23 C5.52176885 24.15941038 3.54104422 23.70820884 0 23 C0 20.69 0 18.38 0 16 C1.65 15.34 3.3 14.68 5 14 C5 11.69 5 9.38 5 7 C4.67 9.31 4.34 11.62 4 14 C2.68 14 1.36 14 0 14 C0 9.38 0 4.76 0 0 Z " fill="#E0EAE6" transform="translate(28,41)"/>
<path d="M0 0 C2.71667147 -0.45760061 4.80477745 -0.58717896 7.51171875 -0.48828125 C8.23994339 -0.48120651 8.96816803 -0.47413177 9.71846008 -0.46684265 C12.04252237 -0.43887081 14.3641673 -0.3761365 16.6875 -0.3125 C18.26363705 -0.28742031 19.83981191 -0.26460655 21.41601562 -0.24414062 C25.27827398 -0.18903626 29.13872732 -0.10275228 33 0 C33 1.65 33 3.3 33 5 C21.12 5 9.24 5 -3 5 C-2.01 3.35 -1.02 1.7 0 0 Z " fill="#E92248" transform="translate(93,83)"/>
<path d="M0 0 C6.6 0 13.2 0 20 0 C19.67 1.98 19.34 3.96 19 6 C16.69 6 14.38 6 12 6 C12 6.66 12 7.32 12 8 C13.65 8 15.3 8 17 8 C16.125 12.875 16.125 12.875 15 14 C12.32941149 14.14115161 9.67567762 14.04247107 7 14 C7.66 11.03 8.32 8.06 9 5 C6.03 5 3.06 5 0 5 C0 3.35 0 1.7 0 0 Z " fill="#EAD3D6" transform="translate(65,58)"/>
<path d="M0 0 C1.48828125 1.26953125 1.48828125 1.26953125 3 3 C3.1875 6.6875 3.1875 6.6875 3 10 C5.97 10.33 8.94 10.66 12 11 C9.11787597 13.88212403 6.45227459 13.37608879 2.5078125 13.55859375 C-0.39998964 14.07040316 -1.70684648 15.20998565 -4 17 C-6.75 16.6875 -6.75 16.6875 -9 16 C-9 15.34 -9 14.68 -9 14 C-11.64 14.33 -14.28 14.66 -17 15 C-17.66 16.98 -18.32 18.96 -19 21 C-15.7 21.33 -12.4 21.66 -9 22 C-9 22.33 -9 22.66 -9 23 C-13.62 23.66 -18.24 24.32 -23 25 C-20.96189024 15.10060976 -20.96189024 15.10060976 -19 12 C-16.11788698 11.03929566 -14.30149956 10.89418117 -11.3125 10.9375 C-10.10013672 10.95103516 -10.10013672 10.95103516 -8.86328125 10.96484375 C-7.94095703 10.98224609 -7.94095703 10.98224609 -7 11 C-7 11.99 -7 12.98 -7 14 C-3.87129568 13.3155324 -3.87129568 13.3155324 -1 11 C-0.14178903 7.34045888 -0.01273347 3.75000564 0 0 Z " fill="#D4DFD9" transform="translate(70,35)"/>
<path d="M0 0 C11.88 0 23.76 0 36 0 C35.67 0.66 35.34 1.32 35 2 C27.74 2 20.48 2 13 2 C13 3.98 13 5.96 13 8 C16.465 7.505 16.465 7.505 20 7 C18.72984669 9.22955653 17.45889952 11.45865426 16.1875 13.6875 C15.83107422 14.31333984 15.47464844 14.93917969 15.10742188 15.58398438 C14.40437954 16.81592095 13.69853766 18.04626458 12.98974609 19.27490234 C12.09921217 20.82707618 11.22987755 22.39136681 10.36328125 23.95703125 C9.91339844 24.63121094 9.46351562 25.30539063 9 26 C8.34 26 7.68 26 7 26 C7.44033945 20.4957569 8.84714564 17.47501909 12 13 C12 12.01 12 11.02 12 10 C11.34 9.67 10.68 9.34 10 9 C10 7.02 10 5.04 10 3 C6.7 2.34 3.4 1.68 0 1 C0 0.67 0 0.34 0 0 Z " fill="#E7EDEA" transform="translate(51,55)"/>
<path d="M0 0 C0.66 0 1.32 0 2 0 C2 0.66 2 1.32 2 2 C2.66 2 3.32 2 4 2 C3.67 2.804375 3.34 3.60875 3 4.4375 C1.79316389 8.73685365 1.19141249 12.57318757 2 17 C4.62954614 20.43301858 7.16255427 22.17147351 11 24 C10.10796875 24.02578125 9.2159375 24.0515625 8.296875 24.078125 C7.12640625 24.13484375 5.9559375 24.1915625 4.75 24.25 C3.00976562 24.31960937 3.00976562 24.31960937 1.234375 24.390625 C-2.46661382 25.08791275 -3.67122429 26.11785184 -6 29 C-6.66 28.34 -7.32 27.68 -8 27 C-7.50628906 26.45730469 -7.01257813 25.91460937 -6.50390625 25.35546875 C-5.86324219 24.64003906 -5.22257812 23.92460938 -4.5625 23.1875 C-3.92441406 22.47980469 -3.28632812 21.77210937 -2.62890625 21.04296875 C-0.80913988 19.00103848 -0.80913988 19.00103848 0 16 C-1.98 16.66 -3.96 17.32 -6 18 C-5.41347648 13.51006131 -4.2356462 9.77456816 -2.4375 5.625 C-1.98246094 4.56539062 -1.52742188 3.50578125 -1.05859375 2.4140625 C-0.70925781 1.61742187 -0.35992187 0.82078125 0 0 Z " fill="#E8EEEB" transform="translate(96,58)"/>
<path d="M0 0 C-1.32 0.33 -2.64 0.66 -4 1 C-4 2.98 -4 4.96 -4 7 C-1.69 7 0.62 7 3 7 C2.34 4.69 1.68 2.38 1 0 C1.66 -0.33 2.32 -0.66 3 -1 C4.32 1.64 5.64 4.28 7 7 C10.37400578 7.41725678 10.37400578 7.41725678 14 7 C15.9354148 4.60943058 15.9354148 4.60943058 17 2 C17.33 2 17.66 2 18 2 C18.33 3.65 18.66 5.3 19 7 C20.98 7 22.96 7 25 7 C24.34 7.99 23.68 8.98 23 10 C20.11083984 10.43237305 20.11083984 10.43237305 16.4609375 10.51171875 C15.15898438 10.54716797 13.85703125 10.58261719 12.515625 10.61914062 C11.13542191 10.64224231 9.75521343 10.66502464 8.375 10.6875 C6.98694648 10.72066445 5.59892393 10.7551533 4.2109375 10.79101562 C0.80737293 10.87374115 -2.5959259 10.94281257 -6 11 C-6.06058594 10.37351562 -6.12117188 9.74703125 -6.18359375 9.1015625 C-6.26738281 8.28429687 -6.35117187 7.46703125 -6.4375 6.625 C-6.51871094 5.81289062 -6.59992187 5.00078125 -6.68359375 4.1640625 C-6.89090114 1.95727195 -6.89090114 1.95727195 -8 0 C-5.13822943 -1.43088528 -3.06624227 -0.59991697 0 0 Z " fill="#FBFAFA" transform="translate(47,81)"/>
<path d="M0 0 C1.18613892 0.00785522 1.18613892 0.00785522 2.39624023 0.01586914 C3.67724609 0.02070312 3.67724609 0.02070312 4.98413086 0.02563477 C5.88196289 0.03401367 6.77979492 0.04239258 7.70483398 0.05102539 C8.6065332 0.05553711 9.50823242 0.06004883 10.43725586 0.06469727 C12.67234712 0.07652315 14.90730835 0.09300319 17.14233398 0.11352539 C17.14233398 2.09352539 17.14233398 4.07352539 17.14233398 6.11352539 C10.21233398 6.11352539 3.28233398 6.11352539 -3.85766602 6.11352539 C-2.6675649 0.1630198 -2.6675649 0.1630198 0 0 Z " fill="#EB3456" transform="translate(108.857666015625,40.886474609375)"/>
<path d="M0 0 C6.15234375 -0.09765625 6.15234375 -0.09765625 8 0 C9 1 9 1 9.09765625 3.72265625 C9.08605469 4.82480469 9.07445313 5.92695313 9.0625 7.0625 C9.05347656 8.16722656 9.04445313 9.27195313 9.03515625 10.41015625 C9.02355469 11.26480469 9.01195313 12.11945313 9 13 C5.7 13 2.4 13 -1 13 C-0.67 8.71 -0.34 4.42 0 0 Z " fill="#32795B" transform="translate(88,129)"/>
<path d="M0 0 C17.16 0 34.32 0 52 0 C52 0.66 52 1.32 52 2 C52.66 2.33 53.32 2.66 54 3 C53.44570312 3.22171875 52.89140625 3.4434375 52.3203125 3.671875 C49.79832664 4.91043033 47.99790854 6.00616882 46 8 C44.71151071 11.96339305 44.26467327 15.85124656 44 20 C43.67 20 43.34 20 43 20 C42.93941406 19.36191406 42.87882812 18.72382812 42.81640625 18.06640625 C42.73261719 17.24011719 42.64882812 16.41382812 42.5625 15.5625 C42.48128906 14.73878906 42.40007812 13.91507813 42.31640625 13.06640625 C42.21069185 11.01337975 42.21069185 11.01337975 41 10 C39.48530552 9.76807135 37.96245438 9.58784762 36.4375 9.4375 C35.61121094 9.35371094 34.78492188 9.26992188 33.93359375 9.18359375 C33.29550781 9.12300781 32.65742187 9.06242187 32 9 C32 8.67 32 8.34 32 8 C32.80824219 7.90203125 33.61648437 7.8040625 34.44921875 7.703125 C35.51785156 7.55359375 36.58648437 7.4040625 37.6875 7.25 C39.27111328 7.04117187 39.27111328 7.04117187 40.88671875 6.828125 C44.61205884 6.06108325 44.61205884 6.06108325 49 2 C24.745 1.505 24.745 1.505 0 1 C0 0.67 0 0.34 0 0 Z " fill="#F2D4D9" transform="translate(28,24)"/>
<path d="M0 0 C5 0 5 0 10 1 C10.33 4.96 10.66 8.92 11 13 C7.37 13 3.74 13 0 13 C0 8.71 0 4.42 0 0 Z " fill="#267251" transform="translate(13,129)"/>
<path d="M0 0 C6.0546875 -0.1953125 6.0546875 -0.1953125 8 0 C10 2 10 2 10.125 5.125 C10.08375 6.07375 10.0425 7.0225 10 8 C8.35 8.33 6.7 8.66 5 9 C5 10.32 5 11.64 5 13 C3.35 13 1.7 13 0 13 C0 8.71 0 4.42 0 0 Z " fill="#2C7656" transform="translate(2,129)"/>
<path d="M0 0 C1.98 0 3.96 0 6 0 C8.24828052 4.49656104 8.16682272 8.07872966 8 13 C4.7 13 1.4 13 -2 13 C-1.48041715 8.62065881 -0.94324258 4.31196609 0 0 Z " fill="#3F8265" transform="translate(101,129)"/>
<path d="M0 0 C2.97 0 5.94 0 9 0 C9 1.98 9 3.96 9 6 C7.35 6 5.7 6 4 6 C4 6.66 4 7.32 4 8 C5.65 8.33 7.3 8.66 9 9 C9 10.98 9 12.96 9 15 C3.25 15.125 3.25 15.125 1 14 C1.33 10.7 1.66 7.4 2 4 C-0.31 3.67 -2.62 3.34 -5 3 C-5 2.67 -5 2.34 -5 2 C-3.35 2 -1.7 2 0 2 C0 1.34 0 0.68 0 0 Z " fill="#E3CCCE" transform="translate(117,49)"/>
<path d="M0 0 C3.63 0 7.26 0 11 0 C11 1.98 11 3.96 11 6 C10.01 6 9.02 6 8 6 C8 8.31 8 10.62 8 13 C6.35 13 4.7 13 3 13 C3 10.69 3 8.38 3 6 C2.01 6 1.02 6 0 6 C0 4.02 0 2.04 0 0 Z " fill="#2F7657" transform="translate(75,129)"/>
<path d="M0 0 C3.625 0.375 3.625 0.375 7 1 C7 1.99 7 2.98 7 4 C5.35 3.67 3.7 3.34 2 3 C2.33 3.99 2.66 4.98 3 6 C4.65 6 6.3 6 8 6 C8.04254356 7.99954746 8.04080783 10.00041636 8 12 C7 13 7 13 5.1875 13.1328125 C4.465625 13.13023437 3.74375 13.12765625 3 13.125 C2.278125 13.12757813 1.55625 13.13015625 0.8125 13.1328125 C-1 13 -1 13 -2 12 C-2.1245486 10.35769636 -2.17568524 8.70947724 -2.1875 7.0625 C-2.20167969 6.16660156 -2.21585938 5.27070313 -2.23046875 4.34765625 C-2 2 -2 2 0 0 Z " fill="#277252" transform="translate(61,129)"/>
<path d="M0 0 C3.625 0.375 3.625 0.375 7 1 C7 2.32 7 3.64 7 5 C5.68 4.67 4.36 4.34 3 4 C3 4.66 3 5.32 3 6 C4.32 6 5.64 6 7 6 C7 8.31 7 10.62 7 13 C0.84765625 13.09765625 0.84765625 13.09765625 -1 13 C-2.66561399 11.33438601 -2.17115945 9.34037295 -2.1875 7.0625 C-2.20167969 6.16660156 -2.21585937 5.27070313 -2.23046875 4.34765625 C-2 2 -2 2 0 0 Z " fill="#1C6B4A" transform="translate(124,129)"/>
<path d="M0 0 C0.66 0 1.32 0 2 0 C1.88628503 2.29225435 1.75869036 4.58382388 1.625 6.875 C1.55539063 8.15117187 1.48578125 9.42734375 1.4140625 10.7421875 C1 14 1 14 -1 16 C-4.0625 16.1875 -4.0625 16.1875 -7 16 C-8.73956658 14.26043342 -8.37190386 11.8063378 -8.5625 9.4375 C-8.68818359 7.91962891 -8.68818359 7.91962891 -8.81640625 6.37109375 C-8.87699219 5.58863281 -8.93757813 4.80617187 -9 4 C-7.68 4 -6.36 4 -5 4 C-5 6.97 -5 9.94 -5 13 C-4.34 13 -3.68 13 -3 13 C-3 9.7 -3 6.4 -3 3 C-2.01 3 -1.02 3 0 3 C0 2.01 0 1.02 0 0 Z " fill="#146643" transform="translate(34,126)"/>
<path d="M0 0 C2.475 0.495 2.475 0.495 5 1 C6.32 0.67 7.64 0.34 9 0 C9 3.96 9 7.92 9 12 C7.68 12 6.36 12 5 12 C4.67 11.01 4.34 10.02 4 9 C3.67 9.99 3.34 10.98 3 12 C2.01 12 1.02 12 0 12 C0 8.04 0 4.08 0 0 Z " fill="#166744" transform="translate(48,130)"/>
<path d="M0 0 C6.6 0 13.2 0 20 0 C20 1.65 20 3.3 20 5 C13.73 5 7.46 5 1 5 C0.67 3.35 0.34 1.7 0 0 Z " fill="#E92248" transform="translate(106,25)"/>
<path d="M0 0 C1.32 0 2.64 0 4 0 C4.33 0.66 4.66 1.32 5 2 C5.33 1.34 5.66 0.68 6 0 C6.99 0 7.98 0 9 0 C9 3.96 9 7.92 9 12 C7.68 12 6.36 12 5 12 C4.67 11.34 4.34 10.68 4 10 C3.67 10.66 3.34 11.32 3 12 C2.01 12 1.02 12 0 12 C0 8.04 0 4.08 0 0 Z " fill="#146643" transform="translate(111,130)"/>
<path d="M0 0 C2.64 0 5.28 0 8 0 C8.33 0.66 8.66 1.32 9 2 C12.11221755 3.99346369 14.550102 4.23778951 18.203125 4.1953125 C19.1828125 4.18886719 20.1625 4.18242188 21.171875 4.17578125 C22.18765625 4.15902344 23.2034375 4.14226563 24.25 4.125 C25.28125 4.11597656 26.3125 4.10695313 27.375 4.09765625 C29.91690287 4.07412011 32.4583328 4.04124023 35 4 C35 4.66 35 5.32 35 6 C22.79 6 10.58 6 -2 6 C-1.34 4.02 -0.68 2.04 0 0 Z " fill="#EC4060" transform="translate(53,49)"/>
<path d="M0 0 C4.95 0 9.9 0 15 0 C15 1.98 15 3.96 15 6 C10.05 6 5.1 6 0 6 C0 4.02 0 2.04 0 0 Z " fill="#EB3759" transform="translate(7,91)"/>
<path d="M0 0 C4.95 0 9.9 0 15 0 C15 1.98 15 3.96 15 6 C10.05 6 5.1 6 0 6 C0 4.02 0 2.04 0 0 Z " fill="#EB395A" transform="translate(7,74)"/>
<path d="M0 0 C4.95 0 9.9 0 15 0 C15 1.98 15 3.96 15 6 C10.05 6 5.1 6 0 6 C0 4.02 0 2.04 0 0 Z " fill="#EB3758" transform="translate(7,66)"/>
<path d="M0 0 C4.95 0 9.9 0 15 0 C15 1.98 15 3.96 15 6 C10.05 6 5.1 6 0 6 C0 4.02 0 2.04 0 0 Z " fill="#EB3859" transform="translate(7,49)"/>
<path d="M0 0 C4.95 0 9.9 0 15 0 C15 1.98 15 3.96 15 6 C10.05 6 5.1 6 0 6 C0 4.02 0 2.04 0 0 Z " fill="#EB3759" transform="translate(7,41)"/>
<path d="M0 0 C5.94 0 11.88 0 18 0 C18 1.65 18 3.3 18 5 C12.06 5 6.12 5 0 5 C0 3.35 0 1.7 0 0 Z " fill="#E92549" transform="translate(108,33)"/>
<path d="M0 0 C6.57692308 0.57692308 6.57692308 0.57692308 8 2 C8.1875 4.9375 8.1875 4.9375 8 8 C6 10 6 10 3.0625 10.375 C0 10 0 10 -1.9375 8.25 C-3 6 -3 6 -2.8125 3.875 C-2 2 -2 2 0 0 Z " fill="#F1A1AF" transform="translate(134,0)"/>
<path d="M0 0 C0.33 0.66 0.66 1.32 1 2 C3.97 2 6.94 2 10 2 C7 5 7 5 5 6 C5 6.99 5 7.98 5 9 C3.17806158 10.9249647 1.10764717 12.37535531 -1 14 C-1.99 13.01 -2.98 12.02 -4 11 C-3.52269162 9.5410574 -3.04308958 8.08286504 -2.5625 6.625 C-2.29566406 5.81289063 -2.02882813 5.00078125 -1.75390625 4.1640625 C-1 2 -1 2 0 0 Z " fill="#EAE8E7" transform="translate(101,47)"/>
<path d="M0 0 C3 1 3 1 4 3 C4.1328125 4.875 4.1328125 4.875 4.125 7 C4.12757812 7.70125 4.13015625 8.4025 4.1328125 9.125 C4 11 4 11 3 13 C4.65 13 6.3 13 8 13 C8 11.35 8 9.7 8 8 C8.33 8 8.66 8 9 8 C9 9.98 9 11.96 9 14 C10.32 14.33 11.64 14.66 13 15 C10.4374282 15.02710123 7.87514635 15.04688771 5.3125 15.0625 C4.2306543 15.07506836 4.2306543 15.07506836 3.12695312 15.08789062 C-0.71555382 15.10543632 -4.26639526 14.93524221 -8 14 C-8 13.67 -8 13.34 -8 13 C-6.35 13 -4.7 13 -3 13 C-3 11.68 -3 10.36 -3 9 C-1.68 8.67 -0.36 8.34 1 8 C1.20970559 3.85906302 1.20970559 3.85906302 0 0 Z " fill="#DBE8E3" transform="translate(10,129)"/>
<path d="M0 0 C6.6 0 13.2 0 20 0 C19.67 1.65 19.34 3.3 19 5 C12.9453125 5.1953125 12.9453125 5.1953125 11 5 C10.34 4.34 9.68 3.68 9 3 C6.56282742 3.27034634 6.56282742 3.27034634 4 4 C3.236875 4.185625 2.47375 4.37125 1.6875 4.5625 C1.130625 4.706875 0.57375 4.85125 0 5 C0 3.35 0 1.7 0 0 Z " fill="#E92348" transform="translate(65,58)"/>
<path d="M0 0 C1.98 0 3.96 0 6 0 C7.00496852 3.01490557 7.10335303 5.04181692 7.0625 8.1875 C7.05347656 9.08855469 7.04445313 9.98960938 7.03515625 10.91796875 C7.02355469 11.60503906 7.01195312 12.29210938 7 13 C6.67 13 6.34 13 6 13 C5.67 11.02 5.34 9.04 5 7 C4.67 9.31 4.34 11.62 4 14 C2.68 14 1.36 14 0 14 C0 9.38 0 4.76 0 0 Z " fill="#DCDDDA" transform="translate(28,41)"/>
<path d="M0 0 C0.66 0.33 1.32 0.66 2 1 C1.34 3.31 0.68 5.62 0 8 C-0.7425 8.103125 -1.485 8.20625 -2.25 8.3125 C-5.19429211 9.04857303 -6.62744926 10.18104443 -9 12 C-9.99 12 -10.98 12 -12 12 C-11.69029053 8.59319587 -11.31233339 6.43958033 -9.3125 3.625 C-6.37550387 1.56116488 -4.51387796 1.68055655 -1 2 C-0.67 1.34 -0.34 0.68 0 0 Z " fill="#E9E1E0" transform="translate(81,69)"/>
<path d="M0 0 C1.32 0 2.64 0 4 0 C6.31514171 2.71430408 7.05147488 4.22787687 6.8125 7.8125 C6.544375 8.864375 6.27625 9.91625 6 11 C5.82726563 11.71285156 5.65453125 12.42570312 5.4765625 13.16015625 C5.00173498 15.11107801 4.50273709 17.05608326 4 19 C3.67 17.68 3.34 16.36 3 15 C2.34 15 1.68 15 1 15 C1.03255208 12.94921875 1.06510417 10.8984375 1.09765625 8.84765625 C1.20561184 6.98267859 1.20561184 6.98267859 0 6 C-0.04080783 4.00041636 -0.04254356 1.99954746 0 0 Z " fill="#EDA6B3" transform="translate(27,66)"/>
<path d="M0 0 C11.88 0 23.76 0 36 0 C35.67 0.66 35.34 1.32 35 2 C27.74 2 20.48 2 13 2 C12.67 3.32 12.34 4.64 12 6 C11.34 5.01 10.68 4.02 10 3 C7.58392583 2.20201782 7.58392583 2.20201782 4.875 1.8125 C3.50988281 1.57466797 3.50988281 1.57466797 2.1171875 1.33203125 C1.41851562 1.22246094 0.71984375 1.11289062 0 1 C0 0.67 0 0.34 0 0 Z " fill="#FDF6F7" transform="translate(51,55)"/>
<path d="M0 0 C4.62 0 9.24 0 14 0 C14 1.65 14 3.3 14 5 C9.38 5 4.76 5 0 5 C0 3.35 0 1.7 0 0 Z " fill="#E92146" transform="translate(8,83)"/>
<path d="M0 0 C0.33 0 0.66 0 1 0 C1.14695312 0.92232422 1.14695312 0.92232422 1.296875 1.86328125 C2.11175199 6.86554872 2.11175199 6.86554872 4.875 10.9375 C5.57625 11.288125 6.2775 11.63875 7 12 C8.33333333 12.66666667 9.66666667 13.33333333 11 14 C10.10796875 14.02578125 9.2159375 14.0515625 8.296875 14.078125 C7.12640625 14.13484375 5.9559375 14.1915625 4.75 14.25 C3.00976562 14.31960937 3.00976562 14.31960937 1.234375 14.390625 C-2.46661382 15.08791275 -3.67122429 16.11785184 -6 19 C-6.66 18.34 -7.32 17.68 -8 17 C-7.50628906 16.45730469 -7.01257813 15.91460937 -6.50390625 15.35546875 C-5.86324219 14.64003906 -5.22257812 13.92460938 -4.5625 13.1875 C-3.92441406 12.47980469 -3.28632812 11.77210937 -2.62890625 11.04296875 C-0.80913988 9.00103848 -0.80913988 9.00103848 0 6 C-0.66 5.67 -1.32 5.34 -2 5 C-1.34 5 -0.68 5 0 5 C0 3.35 0 1.7 0 0 Z " fill="#DDDEDB" transform="translate(96,68)"/>
<path d="M0 0 C4.62 0 9.24 0 14 0 C14 1.65 14 3.3 14 5 C9.38 5 4.76 5 0 5 C0 3.35 0 1.7 0 0 Z " fill="#E92046" transform="translate(8,58)"/>
<path d="M0 0 C4.62 0 9.24 0 14 0 C14 1.65 14 3.3 14 5 C9.38 5 4.76 5 0 5 C0 3.35 0 1.7 0 0 Z " fill="#E92247" transform="translate(8,33)"/>
<path d="M0 0 C4.62 0 9.24 0 14 0 C14 1.65 14 3.3 14 5 C9.38 5 4.76 5 0 5 C0 3.35 0 1.7 0 0 Z " fill="#E92045" transform="translate(8,25)"/>
<path d="M0 0 C4.62 0 9.24 0 14 0 C14 1.65 14 3.3 14 5 C9.38 5 4.76 5 0 5 C0 3.35 0 1.7 0 0 Z " fill="#E92146" transform="translate(8,16)"/>
<path d="M0 0 C2.97 0.495 2.97 0.495 6 1 C6 4.63 6 8.26 6 12 C8.97 12.495 8.97 12.495 12 13 C8.72311897 14.95218444 6.22930273 15.27063566 2.4375 15.25 C1.01244141 15.25773438 1.01244141 15.25773438 -0.44140625 15.265625 C-3 15 -3 15 -6 13 C-5.01 13 -4.02 13 -3 13 C-2.67 11.68 -2.34 10.36 -2 9 C-1.67 10.32 -1.34 11.64 -1 13 C0.32 13 1.64 13 3 13 C3 9.04 3 5.08 3 1 C2.01 0.67 1.02 0.34 0 0 Z " fill="#CADDD5" transform="translate(54,129)"/>
<path d="M0 0 C0.66 0 1.32 0 2 0 C2.02705729 1.77074917 2.04642195 3.54161711 2.0625 5.3125 C2.07410156 6.29863281 2.08570312 7.28476563 2.09765625 8.30078125 C2 11 2 11 1 14 C2.65 14 4.3 14 6 14 C6 14.33 6 14.66 6 15 C-3.41002278 15.18451025 -3.41002278 15.18451025 -8 14 C-8 13.67 -8 13.34 -8 13 C-6.35 13 -4.7 13 -3 13 C-3 10.69 -3 8.38 -3 6 C-2.01 6 -1.02 6 0 6 C0 4.02 0 2.04 0 0 Z " fill="#E2ECE8" transform="translate(86,129)"/>
<path d="M0 0 C-2.33214148 1.20628008 -4.49642139 2.1654738 -7 3 C-8.22520264 6.00847418 -8.22520264 6.00847418 -9 9 C-5.7 9.33 -2.4 9.66 1 10 C1 10.33 1 10.66 1 11 C-3.62 11.66 -8.24 12.32 -13 13 C-11.125 4.375 -11.125 4.375 -10 1 C-6.59437148 0.22157062 -3.49234244 -0.09978121 0 0 Z " fill="#E6ECE9" transform="translate(60,47)"/>
<path d="M0 0 C0.66 0.33 1.32 0.66 2 1 C2 4.63 2 8.26 2 12 C2.99 12.33 3.98 12.66 5 13 C-0.94 13 -6.88 13 -13 13 C-12.34 12.01 -11.68 11.02 -11 10 C-8.6171875 9.70703125 -8.6171875 9.70703125 -5.875 9.8125 C-4.26625 9.874375 -2.6575 9.93625 -1 10 C-0.67 6.7 -0.34 3.4 0 0 Z " fill="#E5EEEA" transform="translate(46,131)"/>
<path d="M0 0 C4.95 0 9.9 0 15 0 C7.98429319 5.2617801 7.98429319 5.2617801 3.8125 5.125 C1.9253125 5.063125 1.9253125 5.063125 0 5 C0 3.35 0 1.7 0 0 Z " fill="#E92348" transform="translate(28,33)"/>
<path d="M0 0 C1.98 0 3.96 0 6 0 C6.33 3.96 6.66 7.92 7 12 C6.01 12 5.02 12 4 12 C4 11.01 4 10.02 4 9 C3.34 8.67 2.68 8.34 2 8 C2.66 8 3.32 8 4 8 C4 6.68 4 5.36 4 4 C2.68 4.99 1.36 5.98 0 7 C0 4.69 0 2.38 0 0 Z " fill="#166845" transform="translate(101,129)"/>
<path d="M0 0 C0.66 1.32 1.32 2.64 2 4 C1.01 4.66 0.02 5.32 -1 6 C4.61 6.33 10.22 6.66 16 7 C16 7.33 16 7.66 16 8 C5.44 8 -5.12 8 -16 8 C-16 7.67 -16 7.34 -16 7 C-11.545 6.505 -11.545 6.505 -7 6 C-7 5.67 -7 5.34 -7 5 C-5.824375 4.87625 -5.824375 4.87625 -4.625 4.75 C-1.85250896 4.27193661 -1.85250896 4.27193661 -0.6875 1.9375 C-0.460625 1.298125 -0.23375 0.65875 0 0 Z " fill="#F9C5CF" transform="translate(110,75)"/>
<path d="M0 0 C-1.56641751 4.30764815 -3.68336156 8.06171464 -6 12 C-6.66 11.67 -7.32 11.34 -8 11 C-8 10.34 -8 9.68 -8 9 C-9.98 9 -11.96 9 -14 9 C-13.67 8.01 -13.34 7.02 -13 6 C-10.69 6 -8.38 6 -6 6 C-5.67 4.35 -5.34 2.7 -5 1 C-2 0 -2 0 0 0 Z " fill="#F4F2F1" transform="translate(57,65)"/>
<path d="M0 0 C2.64 0 5.28 0 8 0 C7.67 1.98 7.34 3.96 7 6 C4.69 6 2.38 6 0 6 C0 4.02 0 2.04 0 0 Z " fill="#EB3B5C" transform="translate(84,41)"/>
<path d="M0 0 C1.32 0 2.64 0 4 0 C4.33 3.96 4.66 7.92 5 12 C3.35 12 1.7 12 0 12 C0.33 10.02 0.66 8.04 1 6 C0.34 5.67 -0.32 5.34 -1 5 C-0.34 5 0.32 5 1 5 C0.67 3.35 0.34 1.7 0 0 Z " fill="#146643" transform="translate(19,130)"/>
<path d="M0 0 C0.33 1.32 0.66 2.64 1 4 C3.64 3.67 6.28 3.34 9 3 C8.67 4.98 8.34 6.96 8 9 C7.67 8.01 7.34 7.02 7 6 C0.4 6 -6.2 6 -13 6 C-13 5.67 -13 5.34 -13 5 C-11.95199219 4.90912109 -11.95199219 4.90912109 -10.8828125 4.81640625 C-9.97273438 4.73261719 -9.06265625 4.64882813 -8.125 4.5625 C-7.22007813 4.48128906 -6.31515625 4.40007813 -5.3828125 4.31640625 C-2.98889139 4.13010715 -2.98889139 4.13010715 -1 3 C-0.67 2.01 -0.34 1.02 0 0 Z " fill="#FBF4F5" transform="translate(83,43)"/>
<path d="M0 0 C2.31 0 4.62 0 7 0 C5.02 0.99 5.02 0.99 3 2 C3 2.99 3 3.98 3 5 C3.66 5.33 4.32 5.66 5 6 C4.34 7.65 3.68 9.3 3 11 C2.01 11 1.02 11 0 11 C0 7.37 0 3.74 0 0 Z " fill="#0C613D" transform="translate(88,130)"/>
<path d="M0 0 C0.66 0 1.32 0 2 0 C1.67 4.62 1.34 9.24 1 14 C0.01 13.67 -0.98 13.34 -2 13 C-2.33 9.7 -2.66 6.4 -3 3 C-2.01 3 -1.02 3 0 3 C0 2.01 0 1.02 0 0 Z " fill="#095F3A" transform="translate(34,126)"/>
<path d="M0 0 C0.33 0 0.66 0 1 0 C1.33 1.65 1.66 3.3 2 5 C3.98 5 5.96 5 8 5 C7.01 6.485 7.01 6.485 6 8 C3.7578125 8.36328125 3.7578125 8.36328125 1.125 8.3125 C0.26132813 8.30863281 -0.60234375 8.30476563 -1.4921875 8.30078125 C-4.0852226 7.9897786 -5.75999753 7.30753633 -8 6 C-7.05125 5.7525 -6.1025 5.505 -5.125 5.25 C-1.91306809 4.3142923 -1.91306809 4.3142923 -0.625 1.875 C-0.41875 1.25625 -0.2125 0.6375 0 0 Z " fill="#D9E5E0" transform="translate(64,83)"/>
<path d="M0 0 C0.556875 0.474375 1.11375 0.94875 1.6875 1.4375 C4.18346074 3.12395996 6.0446237 3.58953107 9 4 C8.67 4.99 8.34 5.98 8 7 C8 6.34 8 5.68 8 5 C7.2575 5.495 6.515 5.99 5.75 6.5 C3 8 3 8 -1 8 C-1.125 2.25 -1.125 2.25 0 0 Z " fill="#DBD4D3" transform="translate(117,63)"/>
<path d="M0 0 C2.64 0 5.28 0 8 0 C7.125 3.875 7.125 3.875 6 5 C4.00041636 5.04080783 1.99954746 5.04254356 0 5 C0 3.35 0 1.7 0 0 Z " fill="#E92147" transform="translate(28,58)"/>
<path d="M0 0 C0.83265381 0.04713135 1.66530762 0.0942627 2.52319336 0.14282227 C3.871875 0.21533203 3.871875 0.21533203 5.24780273 0.28930664 C6.19333008 0.34538086 7.13885742 0.40145508 8.11303711 0.45922852 C9.53712891 0.53753906 9.53712891 0.53753906 10.98999023 0.61743164 C13.34380663 0.74754209 15.6972441 0.88251963 18.05053711 1.02172852 C18.05053711 1.35172852 18.05053711 1.68172852 18.05053711 2.02172852 C8.64553711 2.51672852 8.64553711 2.51672852 -0.94946289 3.02172852 C-1.60946289 4.34172852 -2.26946289 5.66172852 -2.94946289 7.02172852 C-3.60946289 7.02172852 -4.26946289 7.02172852 -4.94946289 7.02172852 C-2.71815473 0.03029628 -2.71815473 0.03029628 0 0 Z " fill="#EDD9DB" transform="translate(107.949462890625,36.978271484375)"/>
<path d="M0 0 C1.32 0 2.64 0 4 0 C4 0.66 4 1.32 4 2 C5.32 2.33 6.64 2.66 8 3 C6.68 3 5.36 3 4 3 C2.85185003 5.29629994 2.69230191 7.07698086 2.4375 9.625 C2.35371094 10.44226563 2.26992188 11.25953125 2.18359375 12.1015625 C2.12300781 12.72804687 2.06242187 13.35453125 2 14 C1.67 14 1.34 14 1 14 C1 10.37 1 6.74 1 3 C-1.31 3 -3.62 3 -6 3 C-6 2.67 -6 2.34 -6 2 C-4.02 2 -2.04 2 0 2 C0 1.34 0 0.68 0 0 Z " fill="#528E74" transform="translate(44,127)"/>
<path d="M0 0 C2.64 0 5.28 0 8 0 C8 1.98 8 3.96 8 6 C6.35 6 4.7 6 3 6 C2.01 4.02 1.02 2.04 0 0 Z " fill="#EF627D" transform="translate(118,49)"/>
<path d="M0 0 C1.65 0 3.3 0 5 0 C3.68 0.33 2.36 0.66 1 1 C1 4.96 1 8.92 1 13 C1.99 13 2.98 13 4 13 C4.33 11.68 4.66 10.36 5 9 C5.33 10.32 5.66 11.64 6 13 C7.32 13.33 8.64 13.66 10 14 C6.05523353 14.80688405 4.00001715 15.00000429 0 14 C0 9.38 0 4.76 0 0 Z " fill="#A9C7BA" transform="translate(110,129)"/>
<path d="M0 0 C0.33 0.66 0.66 1.32 1 2 C1.66 2 2.32 2 3 2 C3 3.98 3 5.96 3 8 C1.35 8 -0.3 8 -2 8 C-2 7.34 -2 6.68 -2 6 C-2.66 5.67 -3.32 5.34 -4 5 C-2.68 3.35 -1.36 1.7 0 0 Z " fill="#E48D9C" transform="translate(123,72)"/>
<path d="M0 0 C0.99 0 1.98 0 3 0 C3 3.63 3 7.26 3 11 C2.01 11 1.02 11 0 11 C0 7.37 0 3.74 0 0 Z " fill="#0F6340" transform="translate(42,130)"/>
<path d="M0 0 C-1.14430177 3.87302138 -2.23320098 7.00263439 -5 10 C-5.66 10 -6.32 10 -7 10 C-6.67506385 6.4257023 -6.36129314 4.44287547 -4.0625 1.625 C-2 0 -2 0 0 0 Z " fill="#DFEAE5" transform="translate(111,61)"/>
<path d="M0 0 C1.65 0 3.3 0 5 0 C4.125 4.875 4.125 4.875 3 6 C1.33382885 6.04063832 -0.33388095 6.042721 -2 6 C-1.34 4.02 -0.68 2.04 0 0 Z " fill="#EB3C5D" transform="translate(77,66)"/>
<path d="M0 0 C2.64 0 5.28 0 8 0 C5.83170013 2.27671486 3.63335392 4.27186149 1 6 C0.01 6 -0.98 6 -2 6 C-1.34 4.02 -0.68 2.04 0 0 Z " fill="#EC4362" transform="translate(103,49)"/>
<path d="M0 0 C1.5625 1.75 1.5625 1.75 3 4 C2.6875 6.25 2.6875 6.25 2 8 C0.35 8 -1.3 8 -3 8 C-3.75 6.25 -3.75 6.25 -4 4 C-2.0625 1.75 -2.0625 1.75 0 0 Z " fill="#EABCC3" transform="translate(78,81)"/>
<path d="M0 0 C2.97 0 5.94 0 9 0 C10.31236443 4.4143167 10.31236443 4.4143167 9 6.875 C5.89740743 8.62020832 3.3726293 7.69997967 0 7 C0 6.67 0 6.34 0 6 C1.134375 5.731875 2.26875 5.46375 3.4375 5.1875 C4.613125 4.795625 5.78875 4.40375 7 4 C7.33 3.01 7.66 2.02 8 1 C5.36 1 2.72 1 0 1 C0 0.67 0 0.34 0 0 Z " fill="#F6CBD3" transform="translate(28,57)"/>
<path d="M0 0 C1.65 0 3.3 0 5 0 C5 1.65 5 3.3 5 5 C3.35 5.33 1.7 5.66 0 6 C0 4.02 0 2.04 0 0 Z " fill="#EB3859" transform="translate(28,41)"/>
<path d="M0 0 C1.65 0 3.3 0 5 0 C5.33 1.65 5.66 3.3 6 5 C4.02 5 2.04 5 0 5 C0 3.35 0 1.7 0 0 Z " fill="#EA2E51" transform="translate(44,83)"/>
<path d="M0 0 C0.99 0.33 1.98 0.66 3 1 C3 2.98 3 4.96 3 7 C2.01 6.34 1.02 5.68 0 5 C-0.1875 2.375 -0.1875 2.375 0 0 Z M-1 5 C-0.67 5.66 -0.34 6.32 0 7 C-1.32 7 -2.64 7 -4 7 C-4 8.65 -4 10.3 -4 12 C-4.33 12 -4.66 12 -5 12 C-5 10.02 -5 8.04 -5 6 C-3.68 5.67 -2.36 5.34 -1 5 Z " fill="#DDC1C4" transform="translate(48,76)"/>
<path d="M0 0 C0.721875 0.391875 1.44375 0.78375 2.1875 1.1875 C2.1875 1.5175 2.1875 1.8475 2.1875 2.1875 C0.5375 2.1875 -1.1125 2.1875 -2.8125 2.1875 C-3.1425 3.8375 -3.4725 5.4875 -3.8125 7.1875 C-5.8125 5.8125 -5.8125 5.8125 -7.8125 4.1875 C-7.8125 3.5275 -7.8125 2.8675 -7.8125 2.1875 C-4.86429158 -0.17106674 -3.72198415 -1.07523986 0 0 Z " fill="#DCE2DE" transform="translate(86.8125,38.8125)"/>
<path d="M0 0 C1.65 0 3.3 0 5 0 C4.67 1.65 4.34 3.3 4 5 C2.35 5 0.7 5 -1 5 C-0.67 3.35 -0.34 1.7 0 0 Z " fill="#EA294D" transform="translate(44,75)"/>
<path d="M0 0 C0.33 1.32 0.66 2.64 1 4 C2.65 4 4.3 4 6 4 C6 4.66 6 5.32 6 6 C3.36 6 0.72 6 -2 6 C-1.125 1.125 -1.125 1.125 0 0 Z " fill="#F9F0F1" transform="translate(104,43)"/>
<path d="M0 0 C2.97 0.99 5.94 1.98 9 3 C9 3.33 9 3.66 9 4 C4.71 4 0.42 4 -4 4 C-3.34 3.34 -2.68 2.68 -2 2 C-1.34 2.33 -0.68 2.66 0 3 C0 2.01 0 1.02 0 0 Z " fill="#F5F8F7" transform="translate(98,78)"/>
<path d="M0 0 C1.32 0 2.64 0 4 0 C4 1.98 4 3.96 4 6 C2.68 6 1.36 6 0 6 C0 4.02 0 2.04 0 0 Z " fill="#EB3355" transform="translate(28,49)"/>
<path d="M0 0 C1.32 0 2.64 0 4 0 C4 1.65 4 3.3 4 5 C2.35 5 0.7 5 -1 5 C-0.67 3.35 -0.34 1.7 0 0 Z " fill="#EA294D" transform="translate(122,58)"/>
<path d="M0 0 C1.74834267 2.622514 2.51529754 3.99484478 3 7 C2.67 7.66 2.34 8.32 2 9 C-0.31 9 -2.62 9 -5 9 C-5 8.67 -5 8.34 -5 8 C-3.02 8 -1.04 8 1 8 C0.34 5.69 -0.32 3.38 -1 1 C-0.67 0.67 -0.34 0.34 0 0 Z " fill="#F3D8DC" transform="translate(49,80)"/>
<path d="M0 0 C-0.99 1.485 -0.99 1.485 -2 3 C-5.125 3.1875 -5.125 3.1875 -8 3 C-8 2.34 -8 1.68 -8 1 C-4.93251126 -0.86240388 -3.40254489 -1.2151946 0 0 Z " fill="#EE5773" transform="translate(53,69)"/>
<path d="M0 0 C2.64 0.66 5.28 1.32 8 2 C8 2.33 8 2.66 8 3 C3.32798795 4.20568053 -1.21496292 4.09382426 -6 4 C-6 3.67 -6 3.34 -6 3 C-5.195625 2.87625 -4.39125 2.7525 -3.5625 2.625 C-2.716875 2.41875 -1.87125 2.2125 -1 2 C-0.67 1.34 -0.34 0.68 0 0 Z " fill="#E9F1EE" transform="translate(121,140)"/>
<path d="M0 0 C0.66 0 1.32 0 2 0 C1.67 4.62 1.34 9.24 1 14 C0.67 14 0.34 14 0 14 C0 10.7 0 7.4 0 4 C-0.99 3.67 -1.98 3.34 -3 3 C-2.01 3 -1.02 3 0 3 C0 2.01 0 1.02 0 0 Z " fill="#45866A" transform="translate(34,126)"/>
<path d="M0 0 C1.0326802 2.78823655 1.04509293 3.8677274 0.0625 6.75 C-0.288125 7.4925 -0.63875 8.235 -1 9 C-3 7 -3 7 -3.125 3.875 C-3.08375 2.92625 -3.0425 1.9775 -3 1 C-2.34 1.66 -1.68 2.32 -1 3 C-0.67 2.01 -0.34 1.02 0 0 Z " fill="#C5D9D0" transform="translate(100,130)"/>
<path d="M0 0 C0.33 1.32 0.66 2.64 1 4 C-0.65 4.33 -2.3 4.66 -4 5 C-4.33 6.32 -4.66 7.64 -5 9 C-5 6.69 -5 4.38 -5 2 C-2.525 2.495 -2.525 2.495 0 3 C0 2.01 0 1.02 0 0 Z " fill="#ABC8BC" transform="translate(68,130)"/>
<path d="M0 0 C2.31 0.33 4.62 0.66 7 1 C7 2.32 7 3.64 7 5 C4.11424181 4.60196439 3.17810487 4.20990931 1.25 1.9375 C0.8375 1.298125 0.425 0.65875 0 0 Z " fill="#327A5C" transform="translate(124,129)"/>
<path d="M0 0 C0.66 0 1.32 0 2 0 C2 1.32 2 2.64 2 4 C2.66 4 3.32 4 4 4 C3.67 5.98 3.34 7.96 3 10 C2.67 8.68 2.34 7.36 2 6 C1.34 6 0.68 6 0 6 C0 4.02 0 2.04 0 0 Z " fill="#D98794" transform="translate(28,75)"/>
<path d="M0 0 C-1.32 0.33 -2.64 0.66 -4 1 C-4.33 3.31 -4.66 5.62 -5 8 C-5.33 8 -5.66 8 -6 8 C-6.66 5.36 -7.32 2.72 -8 0 C-5.13822943 -1.43088528 -3.06624227 -0.59991697 0 0 Z " fill="#EBF0ED" transform="translate(47,81)"/>
<path d="M0 0 C-2.6855594 2.6855594 -5.37621328 3.06049974 -9 4 C-8.1875 2.0625 -8.1875 2.0625 -7 0 C-3.86650268 -1.04449911 -3.01031744 -0.93423645 0 0 Z " fill="#E2E2E0" transform="translate(55,66)"/>
<path d="M0 0 C0.66 0.33 1.32 0.66 2 1 C2 1.99 2 2.98 2 4 C3.32 4.33 4.64 4.66 6 5 C3.1875 5.625 3.1875 5.625 0 6 C-0.99 5.34 -1.98 4.68 -3 4 C-2.01 4 -1.02 4 0 4 C0 2.68 0 1.36 0 0 Z " fill="#C3D8CF" transform="translate(51,138)"/>
<path d="M0 0 C0.66 1.32 1.32 2.64 2 4 C-0.25 5.625 -0.25 5.625 -3 7 C-5.3125 6.1875 -5.3125 6.1875 -7 5 C-5.824375 4.87625 -5.824375 4.87625 -4.625 4.75 C-1.85250896 4.27193661 -1.85250896 4.27193661 -0.6875 1.9375 C-0.460625 1.298125 -0.23375 0.65875 0 0 Z " fill="#CADCD4" transform="translate(110,75)"/>
<path d="M0 0 C2.33944736 0.28730055 4.6739143 0.61936779 7 1 C4.35261084 2.4606285 3.10551666 3 0 3 C-0.33 3.66 -0.66 4.32 -1 5 C-1 1 -1 1 0 0 Z " fill="#F7F4F4" transform="translate(73,71)"/>
<path d="M0 0 C2 1.375 2 1.375 4 3 C4 3.66 4 4.32 4 5 C-0.455 4.01 -0.455 4.01 -5 3 C-5 2.67 -5 2.34 -5 2 C-3.35 2 -1.7 2 0 2 C0 1.34 0 0.68 0 0 Z " fill="#D8D7D4" transform="translate(117,49)"/>
<path d="M0 0 C1.65 0 3.3 0 5 0 C5 1.32 5 2.64 5 4 C3.0625 3.6875 3.0625 3.6875 1 3 C0.67 2.01 0.34 1.02 0 0 Z " fill="#E81E44" transform="translate(120,50)"/>
</svg>
